<svg id="Layer_4" data-name="Layer 4" xmlns="http://www.w3.org/2000/svg" viewBox="0 0 749.54 927.54"><defs><style>.cls-1{fill:#0b0000;stroke:#0b0000;stroke-miterlimit:10;}</style></defs><title>headone</title><path class="cls-1" d="M693.88,393.45c1.61,3.42,2,4.34,9.61,21.07,18.49,40.71,18,39.67,18.46,40.62,10.59,24.62,18.32,47.62,15.53,64.06-.57,3.38-2.64,12.45,1.74,18.22,1.89,2.48,4,3.05,5.37,6.5s.9,7.12.32,10.83c-.67,4.27-1.57,5.56-2.88,10.39A81.58,81.58,0,0,0,739.86,577c-1.46,11.08-2.66,20.25.68,29.41.9,2.47,4.79,7.77,12.57,18.37,3,4,5.83,8,10.08,13.38,9,11.47,17.4,21.24,19.4,23.55,4.87,5.61,10.37,11.76,15.66,21.15,1.9,3.39,3.57,6.83,3.5,11.26-.08,4.78-2.14,8.41-4.65,12.8-2.3,4.06-4.47,6.6-7.88,10.56-5.32,6.17-8,9.26-11.38,11.22-6.5,3.75-10.33,2.07-12.05,5.65s.5,8.43,1.48,10.6a21.79,21.79,0,0,0,5.22,7.05c3.5,3.33,4.77,2.65,6.83,5.19,3,3.63,3.09,8.36,3.15,10.55A22.91,22.91,0,0,1,779,780.28a22.58,22.58,0,0,1-6.32,6.9c-4.18,2.88-5.47,1.37-12.76,4.22-2.06.81-5.27,2.66-11.68,6.35-4,2.31-5,3-4.91,3.78.21,1.87,6.54,2.61,11.79,3.22,6.66.77,7.26.09,10.74,1.08,2.94.84,8,2.29,10.73,7,1.72,3,1.68,6,1.63,10.06-.05,3.61-.11,9-3.43,14.39-1.1,1.78-4.14,6.71-9.46,8.26-6.81,2-10.91-3.43-14.73-.58-2.4,1.78-2.78,5.4-3.23,9.68-.53,5,.43,7.55,1.07,14.05a81.28,81.28,0,0,1,.36,12.63c-.37,6-2,11.08-5.24,20.95-2.62,8-3.93,11.94-5.76,14.82-1.5,2.35-5.75,8.85-13.36,12.37-3.71,1.72-9.69,1.83-21.51,2-10.41.14-9.73-.26-16.55,0-10.61.43-11.85,1.38-17.86.78-5.82-.58-10.1-2-15-3.65-7.1-2.37-7.64-3.42-17.77-7.53-8.7-3.52-15.18-5.53-17.06-6.11a161.71,161.71,0,0,0-16.51-4.14c-9-1.74-13.59-2.59-17.26-1.4-3,1-4.18,2.23-12.75,10.18-13.5,12.52-12.34,11-14.82,13.68-7.92,8.46-7,11.89-14.66,19.1-3.59,3.36-4.14,3.07-8.45,7.24A94.81,94.81,0,0,0,523,972.82a127.65,127.65,0,0,0-7.7,12.82c-8.86,15.93-9.93,20.46-13.74,20.94-2.34.29-5-1.91-10.34-6.33A119.67,119.67,0,0,1,480,989.54c-7.75-8.22-14.76-13.34-26.71-22.07-7.84-5.74-6.3-4-12.18-8.42-11-8.33-14.52-13.07-26.08-21.87-4.58-3.48-7.81-5.6-10.69-7.56-25.11-17-68.89-50.86-75.93-56.31-27.46-21.25-39-31.16-58.37-41.36-14.89-7.83-23.06-12-34.69-11.87-10.07.1-16.26,3.35-25-.81s-13.16-12.41-15-15.72c-3.64-6.66-4.69-13.71-6.65-27.55-2.61-18.44-.86-17.83-3-25.46-3.76-13.3-11.18-22.66-15.05-27.54-6.46-8.15-9-8.47-15.27-17.63-3.38-4.94-2.79-5.06-9.1-15.64-5.81-9.76-6.84-10.55-12.8-20.47-7.43-12.35-6-11.34-9.65-16.72-9.12-13.33-13.24-12.41-16.89-20.88-1.68-3.92-1.19-5-1.79-26.88-.6-22.24-1.17-23.08-.33-29.13.87-6.26,1.42-5,6.92-25,5.61-20.39,4.71-20.56,7.61-27.47,5.17-12.38,9.11-14.42,7.84-19.24-1.43-5.44-7-4.82-21.28-14.13-10.64-6.92-11-9.51-17.11-11-9.78-2.35-13,3.38-18.57.35-8.9-4.83-9.52-24.23-7.65-36,.6-3.79,2.5-9.1,6.3-19.73,5.06-14.15,7.59-21.22,11.69-27.07,4.61-6.57,7.46-7.83,7.55-12.07.13-6.62-6.68-7.54-9.88-15.89-4.41-11.52,5.17-18.64.67-29.72-2.51-6.2-6-5.2-12.87-14.13A63.16,63.16,0,0,1,55.84,304c-4.54-15.22-2.25-29.17-.18-41.79,1.83-11.19,3.56-13.33,3.68-22.39.13-10.38-2.05-15.1-3-22.72-1.37-11.65,1.38-20.31,6.83-36.8a223.54,223.54,0,0,1,28.16-56.2c13.6-19.88,20.39-29.82,32.79-36.57,17.22-9.37,33.92-7.79,47.15-6.54,11.94,1.14,27.75,2.63,42.16,14.53,6.93,5.73,11.55,12.22,17.12,20,5.68,8,11.06,15.55,15.27,26.7,5.45,14.44,3.39,20.22,10.58,31.54,3.2,5,6.6,10.25,12,11.14,6.61,1.09,9-5.41,18.1-7.75,8.44-2.17,20.65-.24,24.89,7.13,4.81,8.38-4.08,17.79.5,27.94,3.88,8.62,14.11,10.92,16.26,11.43,11.65,2.77,17-4.43,31.67-7.05,12.56-2.24,14.76,1.93,33.36,3.37,13.72,1.06,28.46,2.2,44.57-4.12,22.13-8.68,36.2-27.27,43.29-36.64a141.67,141.67,0,0,0,8.62-12.78c6.28-10.83,7.9-17.67,8.88-17.37,1.36.41.85,14.63-5.35,28.45-3.49,7.77-7.55,12.71-13.85,20.37-5.31,6.44-10.19,12.38-18.15,18.09-3.68,2.64-8.58,5.1-18.38,10-10.15,5.11-15.23,7.66-17.93,8.41-15.33,4.22-23.15-2.38-28,3.36-4.14,4.87-3.29,15.3.77,18,4.86,3.22,10.72-7,23.43-7.51,2.8-.1,7.06.23,21.63,7.88,13,6.82,18.86,11.4,25.33,15.28,9.52,5.7,22,8.56,47,14.28a390,390,0,0,0,42.28,7.46c14.62,1.66,17.54,1.05,25.7,2.09,26.05,3.32,45.16,15.63,52.61,20.55,8.07,5.34,23.37,15.67,36.35,34.81C677.81,359.25,683.17,370.65,693.88,393.45Z" transform="translate(-52.71 -79.56)"/></svg>