<svg id="Layer_27" data-name="Layer 27" xmlns="http://www.w3.org/2000/svg" viewBox="0 0 280.51 480.12"><defs><style>.cls-1{fill:#0a0b0a;stroke:#191818;}.cls-1,.cls-2{stroke-miterlimit:10;}.cls-2{fill:#070707;stroke:#0a0b0a;}</style></defs><title>head3brain</title><path class="cls-1" d="M572,789.25c1.13-3.88,2.7-9.2,4.61-15.53,4.15-13.81,8.72-29,14.74-47.08,4.71-14.15,6-17.28,10.59-31.55,2.39-7.52,4.28-13.75,5.53-18a19.67,19.67,0,0,1-3.16-2.86c-.93-1-2-2.4-5.12-9a55.78,55.78,0,0,1-2.71-6.19,45.74,45.74,0,0,1-1.51-6c-.8-4-1.09-6.23-1.65-9.68-1.67-10.2-2.5-11.81-3-12.69a17.81,17.81,0,0,0-5.27-5.55c-3.53-2.62-6.11-3-16.71-5.56-9-2.19-10.67-2.8-12.8-4.28a24.41,24.41,0,0,1-6.93-7.46,25.33,25.33,0,0,1-2.86-7.3c-1.15-5.07,0-7,.15-13.48.16-6.29-.9-5.44-1.51-17a86.18,86.18,0,0,1-.15-11.43c.31-4.49.83-5.67.91-10.15,0-1.88-.13-4.29-.46-9.05-.26-3.86-.43-6.37-.75-10-.49-5.59-.84-9.43-1.5-14.6-.61-4.7-.83-5.39-.75-7.46.06-1.58.29-3.77,2-9.52,1.49-5.13,2.15-6.3,3.16-9.68a65.09,65.09,0,0,0,2.41-12.37,10.49,10.49,0,0,1-1.35-1.16,8.89,8.89,0,0,1-2.43-4.19c.06,0,.33.52,1.24,1.52a12.54,12.54,0,0,0,1.24,1.15c.6.49.69.49.75.47.4-.17,0-2.21-.15-2.88-1.12-5.59,0-5.89-1-9.16-1.24-3.86-3.08-4.27-2.8-6.68.11-1,.45-1.37,2.36-4.2,2.61-3.86,3.92-5.8,4.13-6.52,1.14-3.91-.92-7.94-1.48-9-1.75-3.41-3.34-3.16-4.27-6.22-.87-2.84.25-3.94-.74-6.37-1.08-2.66-3-2.77-4.72-4.66-4.09-4.49.82-10.45-2.21-18.79-2.19-6-5.63-5.33-6.78-11s1.33-10.67,2.65-13.36c1.87-3.8,3.79-7.71,8.08-9.17,3.76-1.28,8.66-.44,11.38,2.8,4.22,5,1.66,14,1.18,14-.2,0-.13-1.7-1-5.59-1-4.41-1.55-6.64-3.24-7.77s-4.15-1.28-5.6,0c-2.37,2.08-.75,7-.3,8.39.53,1.6,1.91,5.84,5.9,7.3,2.66,1,6.47.7,8-1.55,1.31-2-.13-4.05-.59-7.93-1.15-9.65,5.34-16.94,3.83-18-.79-.56-3,1.17-4.12,2.49-2.18,2.46-2.34,5.19-2.81,5.12s-1.27-3.68,0-6.83c1.49-3.69,5.09-5.13,11.21-7.46,8.12-3.09,12.18-4.64,17.1-3.26,4.28,1.2,5.47,3.55,9.14,3.11,2.42-.3,3.33-1.49,7.52-4.51,8.3-6,9.57-4.74,11.94-7.92,3.4-4.56.87-7.17,3.84-12.9,4.24-8.18,13.64-11,14-10.4.27.42-4.48,2.58-6.49,8.07-1.89,5.16-.44,10.69.29,10.72s.36-4.19,3-9.16c1-1.84,3.16-6.05,6.93-7.77,5.38-2.45,8.63,2.58,18.28,3.42,8.37.72,8.1-2.86,14.89-1.71,3.52.6,9,4.19,19.91,11.34,4.85,3.19,5.74,3.92,8.4,5.28,6.69,3.42,8.25,2.5,12.83,5.28,2.91,1.77,2,2,10.47,9.95,5.3,5,8,7.51,10.61,8.7,4.67,2.11,6.49,1,9.29,3.57,2.63,2.38,3.5,5.56,4.57,9.47,2,7.32.16,8.85,2.21,12.12s4.59,2.79,11.06,6.68c3.28,2,6.59,4,9.44,7.3,5.11,6,8.31,15.85,6.34,24.24-.7,3-1.62,4-1.77,7.3-.24,5.24,1.91,6.09,1.62,11.5a49.35,49.35,0,0,1-1.47,8.69c-.63,2.43-1.07,3.36-.74,4.82.57,2.54,2.55,2.57,4.27,5.28,2.12,3.33,1.71,7.33,1.48,9.63a25,25,0,0,1-2.07,7.15c-4.74,12-7.52,12.49-7.51,17.71,0,2.8.8,4.93-.59,7.3-1,1.74-2.33,2.08-3.1,4s-.24,3.6,0,5.28c1,6.88-2.58,16-7.08,17.71a4.21,4.21,0,0,0-2.5,1.56c-.73,1.2-.18,2.41-.15,4.5a14.24,14.24,0,0,1-1,5.28c-1,2.72-1.78,2.11-4.43,6.53-1.64,2.73-.75,2-2.95,6.21a4.47,4.47,0,0,0-.59,1.87c-.1,1.92,1.36,3.4,1.92,4,1.39,1.57,2.35,5.29,4.28,12.74,1.52,5.91,1.06,6.16,2.21,8.24.82,1.49,2.32,3.16,5.31,6.52,2,2.31,3.08,3.46,4.27,4.66,3.27,3.28,4.14,3.55,4.57,5.13.48,1.75-.09,3.28-1.18,6.21-.81,2.18-1.45,3.92-3.09,5-1.1.71-1.89.63-2.07,1.25-.41,1.44,3.37,3.78,3.54,3.88,2.66,1.62,4.43,1.58,8.11,2.64a27.5,27.5,0,0,1,6.19,2.33c6.57,3.82,6,11.11,14.16,18,.76.65,1.41,1.13,1.79,1.4V792H571.78Z" transform="translate(-512.36 -313.99)"/><g id="Layer_22" data-name="Layer 22"><path class="cls-2" d="M570.67,679l51.52,35.08,14.24,79.51-123.26-6.07Z" transform="translate(-512.36 -313.99)"/></g></svg>