<svg id="head1" xmlns="http://www.w3.org/2000/svg" viewBox="0 0 194.5 125.19"><defs><style>.cls-1{fill:#d6bc91;}.cls-1,.cls-2,.cls-3,.cls-4{stroke:#0a0b0a;stroke-miterlimit:10;}.cls-2{fill:#b4a296;}.cls-3{fill:#b29180;}.cls-4{fill:#cea58a;}</style></defs><title>head1inside</title><g id="Layer_16" data-name="Layer 16"><path class="cls-1" d="M106.79,416.8c-.62,0-1-.13-1.46.22a8.94,8.94,0,0,0-.58.68c-.57.68-.74.84-.81,1.18a6,6,0,0,0,0,.69,3.42,3.42,0,0,1-.22,1c-.19.49-.36.38-.59.85s-.1.75-.38,1.23c-.18.32-.25.24-.47.58a5.2,5.2,0,0,0-.47,1.27,8.1,8.1,0,0,0-.37,1.17,9.16,9.16,0,0,0-.05,1.16h0a.94.94,0,0,1,.43.51,2.78,2.78,0,0,1,.06.93,5.62,5.62,0,0,0,.1,1.06,2.37,2.37,0,0,0,.43.92c.39.5.94.35,2.34.28l2.2,0c1.69,0,1.62.06,2,0,1.49-.14,2.2-1,3.74-2,1.38-.84,1.25-.39,4-1.53,4.21-1.73,5.11-3,7.22-2.88a4.79,4.79,0,0,0,1.62-.09,8.64,8.64,0,0,0,2.81-1.63c1.33-.83,2.49-.62,4-.49l11.77-.24a69.84,69.84,0,0,0,8.78-.65c4.7-.68,4.93-1.3,12.05-2.77,5.84-1.21,8.75-1.81,10.21-1.47,2.25.53,4.4,1.71,6.7.28a5.94,5.94,0,0,0,2.38-2.79,17.59,17.59,0,0,0,.11-7.85c-.37-1-.71-1.1-1.53-2.9-.51-1.11-.47-1.27-.77-1.81a5.66,5.66,0,0,0-2.8-2.34c-2.17-1.11-3.89-1.22-7.33-1.43a1.27,1.27,0,0,0-1.17.4,2.49,2.49,0,0,0-.08,2.43,1.4,1.4,0,0,0,.38.44,1.43,1.43,0,0,0,1.14.29,45.77,45.77,0,0,0-7.59.15,34.46,34.46,0,0,0-7.62,2.05c-4.52,1.52-9.11,2.94-11.82,3.71-8.2,2.33-19.94,4.55-22.73,6.36a6.61,6.61,0,0,1-1.64.79c-1.2.37-1.49,0-3,.17s-1.49.51-2.87.56c-.94,0-1-.13-1.89-.05a12.9,12.9,0,0,0-2.38.52c-1,.27-1,.31-2,.57A13.44,13.44,0,0,1,106.79,416.8Z" transform="translate(-38.73 -384.16)"/><path class="cls-1" d="M107.32,505.18c.31.51.39.9.87,1.11a6.26,6.26,0,0,0,.81.17c.8.16,1,.23,1.31.14s.16-.11.55-.29a3.17,3.17,0,0,1,.9-.29c.47-.06.47.13.95.1s.63-.26,1.14-.26c.33,0,.3.11.67.13a4.42,4.42,0,0,0,1.22-.2,6.88,6.88,0,0,0,1.09-.23,8.65,8.65,0,0,0,.92-.49h0a.93.93,0,0,1,.2-.6c.14-.18.28-.22.69-.49a4,4,0,0,0,.78-.57,2.06,2.06,0,0,0,.51-.78c.2-.56-.18-.95-.9-2.09-.06-.1-.4-.67-1.07-1.82-.82-1.41-.74-1.38-1-1.69-.83-1.19-1.87-1.36-3.33-2.21s-.9-.87-3.13-2.67c-3.37-2.72-4.8-2.87-5.71-4.69a4.7,4.7,0,0,0-.85-1.31,8.17,8.17,0,0,0-2.61-1.59c-1.29-.72-1.69-1.79-2.29-3.08l-5.83-9.7a70.05,70.05,0,0,0-4.71-7c-2.79-3.61-3.39-3.51-8-8.77-3.74-4.31-5.6-6.46-6-7.84-.66-2.13-.77-4.46-3-5.72a5.43,5.43,0,0,0-3.31-.69,8.9,8.9,0,0,0-3.44,1.48,8.89,8.89,0,0,0-2.74,2.06c-.63.8-.51,1.11-1.52,2.63-.62.94-.77,1-1,1.48a5.54,5.54,0,0,0-.47,3.41c.17,2.33.91,3.82,2.39,6.79a1.31,1.31,0,0,0,.88.79,2.16,2.16,0,0,0,1.93-1.06,1.41,1.41,0,0,0-.16-1.61A47.17,47.17,0,0,0,67.83,464a34.79,34.79,0,0,0,5.26,5.4c3.34,3.07,6.65,6.23,8.55,8.14,5.75,5.77,13.11,14.53,15.86,16a6.27,6.27,0,0,1,1.4,1c.86.83.72,1.25,1.59,2.46s1.12,1,1.81,2.14c.48.77.37.87.87,1.6a13.41,13.41,0,0,0,1.55,1.74c.68.69.71.67,1.39,1.37A12.75,12.75,0,0,1,107.32,505.18Z" transform="translate(-38.73 -384.16)"/><path class="cls-2" d="M83.57,481.2a12.74,12.74,0,0,1-3.83,1.72c-3.68.88-5.52,1.31-7.93,1.25a17.06,17.06,0,0,1-7-1.46,14,14,0,0,1-4.67-3.57c-2.55-3-3.27-6.47-2.95-6.62.15-.07.36.59,1.3,1a4.54,4.54,0,0,0,3.44.13c.37-.14.56-.27,2.39-1.73s1.79-1.46,2.27-1.82c1.84-1.38,2.77-2.07,3.7-2,.6,0,.84.35,1.84,1.31,2.18,2.11,2,1.55,4.12,3.67.57.57.27.3,2.19,2.34a36.69,36.69,0,0,0,2.71,2.74c1.77,1.25,3.35,1.44,3.23,2.18C84.36,480.58,84.18,480.79,83.57,481.2Z" transform="translate(-38.73 -384.16)"/><path class="cls-2" d="M58.75,447.3c.53-.12.29-1.34,1.54-2.45a14.77,14.77,0,0,1,2.27-1.25c1.33-.73,1.31-.83,2.24-1.32A9.89,9.89,0,0,1,67.93,441c1.92-.3,2.65.61,3.6.05.73-.43.43-1,1.24-2.14.63-.85,1.6-1.38,3.51-2.4a18.53,18.53,0,0,1,3.89-1.77,33.38,33.38,0,0,1,4.59-.64c3.52-.46,3.86-.7,4-.94.57-.8-.63-1.65-1.94-4.25a36.51,36.51,0,0,1-2-5.72c-1-3.12-1.12-4.36-1.88-4.37s-1.67,1.08-2,2,.19,1-.08,2.08a4.09,4.09,0,0,1-1,1.87,8.46,8.46,0,0,1-1.72,1.28c-.74.47-.91.48-1.18.78-.47.52-.27.83-.64,1.52A4.49,4.49,0,0,1,74.65,430a9.93,9.93,0,0,1-2.13.83c-2.08.75-2.2,1.19-3.1,1.34-1.32.22-2.29-.52-3.5-1.35-4.42-3-4.67-2.06-6.23-3.65-2.94-3-1.77-6.11-3.86-6.45-.79-.13-1.14.29-4.9,2.2-4.1,2.09-5.43,2.48-5.45,3.16s1.49.69,4,1.94c1.77.88,4,2,4.83,4.16.55,1.49-.23,1.8.38,4.39.33,1.43.59,1.44,1.09,3.28s.3,2.26.79,3.85S58,447.47,58.75,447.3Z" transform="translate(-38.73 -384.16)"/><path class="cls-3" d="M61.17,426.09a19.36,19.36,0,0,0,4,3c1.64,1,2.48,1.47,3.41,1.39.5-.05,1.07-.21,2.54-.39a6.38,6.38,0,0,1,1.35-.13,4.14,4.14,0,0,0,.79.05,2.11,2.11,0,0,0,1-.31,1.69,1.69,0,0,0,.53-.61c.37-.65.22-1,.39-1.51s.58-.9,1.31-1.51c1.2-1,1.71-.84,2.36-1.65a4.37,4.37,0,0,0,.72-1.49,13.58,13.58,0,0,0,.31-1.55c.32-1.14,1-1.38,1.84-2.9a5.36,5.36,0,0,0,.74-1.67c.41-2.24-2.61-2.77-3-5.63-.18-1.43.55-1.51.27-3s-1.08-1.69-2.6-3.91c-.45-.66-1-1.63-2-3.57s-1.64-3.08-1.9-3.77c-.86-2.21-.64-3-1.75-6.16-.65-1.85-1.07-2.54-1.92-2.77a4.92,4.92,0,0,0-3,.56,5.92,5.92,0,0,0-3,2.12c-.59,1-.39,1.9,0,3.47a5.55,5.55,0,0,0,1.31,3.05c1.34,1.36,3.12,1.26,3,2-.06.57-1.23,1.06-1.8,1.3a9.77,9.77,0,0,1-3.48.6c-2.65.18-3.58.15-3.61.28s1.34.48,2.7.57a10.11,10.11,0,0,0,2.35,0c1-.16,1.49-.41,1.94-.16a.75.75,0,0,1,.38.89c-.17.34-.71.38-2.13.76-.61.17-1.32.38-1.77.54a9.75,9.75,0,0,0-2.66,1.45c-1,.78-1.38,1.69-2.22,3.51a9.93,9.93,0,0,0-1.16,3.43c-.1,1.17.22,1.26.09,2.74s-.42,1.57-.3,2.47a9.88,9.88,0,0,0,.88,2.25c.19.42.43,1,.81,1.67a22.5,22.5,0,0,0,1.4,2.41A16.72,16.72,0,0,0,61.17,426.09Z" transform="translate(-38.73 -384.16)"/><path class="cls-2" d="M114.26,494.65c.4-.36-.11-1.25-1.81-4.2-2-3.44-2.51-4.37-3-5.4a36.38,36.38,0,0,1-1.86-4.56c-.46-1.32-1.95-5.15-4.94-12.81-3.07-7.86-3.58-8.57-5-13.05-1.15-3.49-1.1-3.87-2-6.67a84,84,0,0,0-5.73-13.29c-1.09,0-2,0-2.54.07a33.71,33.71,0,0,0-10.12,2.65,13.39,13.39,0,0,0-1.72.94,8.68,8.68,0,0,0-1.65,1.35,5.65,5.65,0,0,0-.7.94,5.22,5.22,0,0,0-.5,1.09,4.94,4.94,0,0,0-.17,1.35c.18,4.77,5.54,10.53,5.54,10.53,3.23,3.48,3.78,3.75,6.4,6.51a63.09,63.09,0,0,1,8,9.62c.92,1.42,2.81,4.82,6.58,11.61A24.92,24.92,0,0,0,100.6,484c2.49,3.5,3.85,3.17,7,6.77a10.76,10.76,0,0,0,3.85,3.32C111.77,494.25,113.7,495.16,114.26,494.65Z" transform="translate(-38.73 -384.16)"/><path class="cls-2" d="M51.83,432.46c1,3.62.89,1.35,2.47,6.8,1,3.26.72,3.1,1.48,5.57,1.16,3.75,1.46,3.37,2.11,5.95a58.13,58.13,0,0,1,1.37,6.56c.18,1.54.22,2.77,1.24,3.2s2.42-.22,2.92-.44,1.18-.57,3.18-2.68c1.23-1.3,1.07-1.3,2.05-2.33,2-2.06,2.6-2,3.41-3.27a9.36,9.36,0,0,0,1-3.34c.41-2,.25-2.81,1.09-4.13a8.64,8.64,0,0,1,3.11-2.83,3.69,3.69,0,0,1,2.18-.64,3.12,3.12,0,0,0,1.13.17c.41-.05.67-.2.7-.15s-1.08.83-1.5,1.09c-1.62,1-2.56,1.48-2.53,1.56a5.23,5.23,0,0,0,1.21-.37,13.88,13.88,0,0,0,1.91-.88c1-.6,1-1,2.69-2.57A10,10,0,0,1,86,437.49c.15-.07.6-.23,1.51-.56.61-.22.78-.28.81-.23s-.54.53-1.41,1.4a14.28,14.28,0,0,0-1.4,1.6,12.15,12.15,0,0,0-.73,1.13,4.54,4.54,0,0,0-.66,1.54c.06,0,.3-.3.79-1,.78-1,1.57-2.08,2.34-3.14a8.41,8.41,0,0,1,1.8-1.9c.46-.35.78-.51,1-.44s.43.51.42.81c0,.56-.41.77-1.06,1.84-.29.47-.19.39-.64,1.19s-.58.94-1,1.61a8.92,8.92,0,0,0-1,2c.06,0,.38-.5,1.16-1.44s1-1.09,1.52-1.79a6.57,6.57,0,0,0,.88-1.57c.25-.7.24-1.21.47-1.27s.36.2.51.41a2.24,2.24,0,0,1,.48,1.42,4.26,4.26,0,0,1-.45,1.45,9.43,9.43,0,0,1-.89,1.8,10.81,10.81,0,0,1-1.4,1.51,8,8,0,0,0-2,2.91,20,20,0,0,1,1.81-1.63,11.52,11.52,0,0,0,1.27-.92,10.38,10.38,0,0,0,1-1.14c.42-.5.46-.61.84-1.05.57-.66.86-1,1.07-1s.4.61.29,1.09-.33.62-.79,1.35-.39.78-.69,1.24a6.63,6.63,0,0,1-1.62,1.61c-1.09.84-2,1.81-3.06,2.71-2.82,2.49-2.49,2.49-3.32,2.95-1.45.8-2.1.62-3.6,1.6a9.87,9.87,0,0,0-2,1.71c-1.4,1.5-1.45,2.22-3.63,6.06-.75,1.31-1.24,2.11-1.84,3a22,22,0,0,1-1.61,2.1c-2.49,2.78-4.48,2-7.05,4.66a8.43,8.43,0,0,1-2.65,1.95,3,3,0,0,1-1.63.35,2.06,2.06,0,0,1-1.3-.75c-1.79-1.85-1.72-1.18-3.36-3.1a25.94,25.94,0,0,1-1.69-2.2c-2.17-3.26-3.79-8.22-4.32-9.75-1-2.76-2.56-5.51-5.74-11-3.09-5.36-4.41-6.8-4.28-9.93.1-2.47,1-4.21,2.47-6.92a4.11,4.11,0,0,1,2.2-2.27,3.52,3.52,0,0,1,1.8,0c.83.21,1,.56,1.85,1a19,19,0,0,0,2.45.86C51.19,430,51.46,431.16,51.83,432.46Z" transform="translate(-38.73 -384.16)"/><path class="cls-4" d="M94.78,447.16a19,19,0,0,1-2.21,1.78A24.2,24.2,0,0,1,88.7,451a42.66,42.66,0,0,1-6,2.18c-2.29.64-3.08.66-5.84,1.21-3.8.76-4.51,1.16-12.77,3.29-2.18.57-3.95,1-5,1.28a2.29,2.29,0,0,1,.32.73c.14.59,0,1.07-.43,2.41-.54,1.69-.61,1.81-.54,2.12s.26.35.71,1.41a7.81,7.81,0,0,0,.45,1c.29.47.48.55.47.83a1.16,1.16,0,0,1-.94,1c-.29,0-.28-.31-.76-.91A4.74,4.74,0,0,0,57,466.43c-.41-.23-.89-.43-.94-.37s.58.41,1.3,1.19c.36.4.26.38.65.79.55.59.81.7.8,1a.89.89,0,0,1-.63.82c-.13,0-.24-.14-.45-.44s-.33-.64-.65-1.05l-.17-.19a3.85,3.85,0,0,0-.71-.61,6.54,6.54,0,0,0-1.77-.75c-.06.08,1.16.75,2.38,2,.31.33.59.65.46.83s-.52.15-.8.09c-.59-.14-.73-.56-1.38-1.42a5.69,5.69,0,0,0-1.18-1.29,14.52,14.52,0,0,0-1.57-.73c-.87-.44-1.3-.66-1.52-1s-.14-.62-.5-1.29a6.06,6.06,0,0,0-.54-.75c-.39-.61-.06-1.38.5-2.83,1-2.52,1-2.86,1.71-4.2a5.53,5.53,0,0,1,1.49-2.1,6.16,6.16,0,0,1,1.64-.88c2.72-1.09,2.64-1.45,5.13-2.42,1.59-.62,1.27-.34,3.46-1.11s3-1.26,6.1-2.46c1.76-.69,1.61-.57,2.91-1.08,4.9-1.93,7.35-2.9,9.05-4.76a15.5,15.5,0,0,1,3.11-3.29,16.6,16.6,0,0,1,2.1-1.23,19.6,19.6,0,0,1,3.34-1.32Z" transform="translate(-38.73 -384.16)"/></g><g id="Layer_21" data-name="Layer 21"><path class="cls-2" d="M140.83,407.27a15.08,15.08,0,0,1,.49-4.61c1.18-4,1.76-6,3.09-8.27a19.19,19.19,0,0,1,5-5.88,14.47,14.47,0,0,1,5.67-2.5c4-.8,7.51.43,7.48.83,0,.17-.72,0-1.62.66a5.16,5.16,0,0,0-1.94,3.23c-.07.42-.06.67.28,3.23s.35,2.51.41,3.17c.26,2.51.38,3.79-.16,4.65-.35.56-.76.61-2.14,1-3,.93-2.46,1.09-5.47,1.93-.81.23-.41.09-3.26.81a36.8,36.8,0,0,0-3.89,1.08c-2,1-3.06,2.42-3.65,1.89C141,408.36,140.87,408.08,140.83,407.27Z" transform="translate(-38.73 -384.16)"/><path class="cls-2" d="M184.29,402.16c-.18.59,1,1,1.37,2.82a17.51,17.51,0,0,1-.09,2.87c0,1.67,0,1.71,0,2.87a11.65,11.65,0,0,1-.54,3.69c-.75,2-2,2.19-2,3.41,0,.93.7,1,1.25,2.36.44,1.07.39,2.29.29,4.67a22.18,22.18,0,0,1-.49,4.7,38.27,38.27,0,0,1-1.86,4.74c-1.46,3.63-1.44,4.07-1.31,4.37.41,1,1.81.31,4.83.48a35.77,35.77,0,0,1,6.19,1.2c3.29.79,4.49,1.33,4.9.6s-.07-2.19-.75-3-1-.4-1.83-1.22a4.56,4.56,0,0,1-1.12-2,10,10,0,0,1-.23-2.35,6.22,6.22,0,0,0-.06-1.55c-.22-.74-.6-.72-1-1.45a5.18,5.18,0,0,1-.55-2.5,12,12,0,0,1,.39-2.49c.44-2.4.11-2.76.46-3.71.5-1.38,1.67-1.9,3.06-2.61,5-2.57,4.33-3.33,6.57-3.94,4.24-1.17,6.4,1.66,7.81-.15.54-.69.35-1.24.64-5.89.31-5.08.67-6.56.08-7s-1.42,1-3.85,2.73c-1.73,1.2-3.95,2.74-6.29,2.33-1.62-.3-1.48-1.21-4.12-2.06-1.44-.46-1.6-.22-3.5-.76-2.07-.58-2.18-.94-3.86-1.35S184.53,401.37,184.29,402.16Z" transform="translate(-38.73 -384.16)"/><path class="cls-3" d="M202,416.15a19.58,19.58,0,0,0-4.81,2.17c-1.75,1-2.63,1.57-3,2.5-.22.51-.38,1.14-1,2.64a7.26,7.26,0,0,1-.59,1.37,4.46,4.46,0,0,0-.47.72,2.43,2.43,0,0,0-.27,1.16,2,2,0,0,0,.26.85c.39.71.78.75,1.15,1.19a3.9,3.9,0,0,1,.64,2.09c.26,1.69-.15,2.1.23,3.16a4.57,4.57,0,0,0,.95,1.51c.57.7.76.64,1.22,1.14.85.94.71,1.72,1.6,3.36a6,6,0,0,0,1.11,1.63c1.78,1.62,3.86-1,6.6.25,1.38.61,1.07,1.35,2.52,1.89s2.08-.11,4.87-.34a40.36,40.36,0,0,1,4.25.06,43.61,43.61,0,0,1,4.37.25c2.43.4,3,1.06,6.43,1.72,2,.39,2.84.37,3.51-.32a5.72,5.72,0,0,0,1.11-3.21,6.8,6.8,0,0,0-.3-4c-.57-1.12-1.49-1.42-3.08-2a5.47,5.47,0,0,0-3.41-.41c-1.93.53-2.79,2.28-3.4,1.81s-.3-1.76-.21-2.44a12,12,0,0,1,1.32-3.66c1.24-2.63,1.77-3.5,1.67-3.61s-1.15,1-1.94,2.28a11,11,0,0,0-1.22,2.27c-.38,1-.43,1.65-.88,1.94a.74.74,0,0,1-1-.12c-.22-.35,0-.9.44-2.46.18-.68.37-1.47.46-2a11.34,11.34,0,0,0,.12-3.34c-.18-1.35-.77-2.25-1.95-4a10.53,10.53,0,0,0-2.45-3c-1-.74-1.24-.48-2.5-1.42s-1.17-1.27-2-1.65a9.68,9.68,0,0,0-2.48-.39c-.48-.05-1.09-.11-1.93-.15a19.93,19.93,0,0,0-2.89,0A16.3,16.3,0,0,0,202,416.15Z" transform="translate(-38.73 -384.16)"/></g><g id="Layer_17" data-name="Layer 17"><path class="cls-2" d="M112.5,429.23c.12.58,1.18.58,4.72.57,4.13,0,5.23,0,6.43.08a34.62,34.62,0,0,1,5.06.74c1.42.28,5.64,1,14.06,2.31,8.65,1.39,9.56,1.29,14.34,2.35,3.73.82,4,1.07,7,1.72a81.76,81.76,0,0,0,14.91,1.83c.6-1,1-1.9,1.29-2.47a39,39,0,0,0,3-11.14,14.8,14.8,0,0,0,.07-2.16,9.06,9.06,0,0,0-.33-2.31,7.32,7.32,0,0,0-.46-1.19,5.75,5.75,0,0,0-.72-1.08,4.75,4.75,0,0,0-1.11-.9c-4.35-2.45-12.35-.5-12.35-.5-4.82,1.18-5.35,1.56-9.21,2.55-5,1.28-8.4,2.15-12.87,2.4-1.75.1-5.79,0-13.87-.09a23.53,23.53,0,0,0-3.24.08c-4.44.45-4.88,1.94-9.75,3a10.93,10.93,0,0,0-5,1.85C114.19,427.06,112.35,428.41,112.5,429.23Z" transform="translate(-38.73 -384.16)"/></g><g id="Layer_18" data-name="Layer 18"><path class="cls-2" d="M201.22,403.71c-3.78-1-1.68.11-7.38-1.37-3.42-.89-3.15-1-5.77-1.65-4-.95-3.79-.46-6.43-1.26a58.85,58.85,0,0,1-6.59-2.29c-1.47-.67-2.6-1.32-3.51-.58s-1.1,2.43-1.16,3-.12,1.45.7,4.52c.5,1.89.59,1.74,1,3.25.79,3,.42,3.59,1.11,5.05a10.09,10.09,0,0,0,2.43,2.83c1.55,1.48,2.38,1.79,3.11,3.32a9,9,0,0,1,.63,1.85,8.55,8.55,0,0,1,.25,2.68,4.22,4.22,0,0,1-.59,2.43,3.45,3.45,0,0,0-.75,1c-.18.42-.19.75-.24.75a8.54,8.54,0,0,1-.18-2,29.9,29.9,0,0,0-.05-3.27,6.26,6.26,0,0,0-.31,1.36,16,16,0,0,0-.23,2.3c0,1.3.31,1.53.87,4a12.3,12.3,0,0,1,.48,4c0,.18-.12.7-.31,1.75-.12.7-.16.9-.23.9s-.18-.81-.49-2.12a16.74,16.74,0,0,0-.69-2.22,14.23,14.23,0,0,0-.62-1.31c-.4-.72-.95-1.56-1-1.49a4.46,4.46,0,0,0,.45,1.3c.52,1.31,1,2.64,1.56,4a9.53,9.53,0,0,1,.74,2.77c.07.63,0,1-.14,1.22s-.69.14-1,0c-.49-.32-.47-.82-1.08-2-.27-.53-.25-.39-.72-1.26s-.53-1.07-.92-1.82a9.55,9.55,0,0,0-1.23-2c-.05,0,.24.64.67,1.9.49,1.44.42,1.59.79,2.43a6.89,6.89,0,0,0,.93,1.71c.5.63,1,.9.88,1.15s-.37.24-.63.27a2.2,2.2,0,0,1-1.53-.34,4.36,4.36,0,0,1-1-1.21,10,10,0,0,1-1.13-1.85,12.14,12.14,0,0,1-.61-2.17,9.13,9.13,0,0,0-1.52-3.53c-.09.06.35,1,.49,2.63a11.71,11.71,0,0,0,.15,1.72,11.17,11.17,0,0,0,.46,1.61c.23.68.3.78.5,1.38.29.91.43,1.37.29,1.55s-.75.05-1.13-.32-.38-.65-.79-1.5-.49-.8-.74-1.33a7.65,7.65,0,0,1-.57-2.44c-.18-1.5-.54-3-.8-4.42-.73-4.07-.9-3.75-.87-4.8.05-1.82.56-2.34.48-4.32a11.45,11.45,0,0,0-.48-2.81c-.6-2.17-1.22-2.61-3.48-6.81-.78-1.43-1.23-2.35-1.68-3.39a27.53,27.53,0,0,1-1-2.69c-1.15-3.92.57-5.41-.41-9.31a10,10,0,0,1-.33-3.61,3.39,3.39,0,0,1,.55-1.75,2.2,2.2,0,0,1,1.36-.83c2.61-.69,2-1,4.55-1.51a22.93,22.93,0,0,1,2.87-.4c4.07-.28,9.36.89,11,1.22,3,.6,6.27.59,12.88.58,6.44,0,8.42-.48,11.14,1.36,2.15,1.46,3.22,3.3,4.88,6.16a4.77,4.77,0,0,1,.85,3.36,3.89,3.89,0,0,1-1,1.7c-.63.68-1,.68-1.89,1.2-1.2.75-1.29,1.35-2.07,1.88C203.76,404.45,202.58,404.07,201.22,403.71Z" transform="translate(-38.73 -384.16)"/></g><g id="Layer_19" data-name="Layer 19"><path class="cls-4" d="M165.27,436.71a21,21,0,0,1-.41-3.1,27.75,27.75,0,0,1,.2-4.85,50.44,50.44,0,0,1,1.24-6.95c.65-2.54,1-3.3,2-6.25,1.34-4.05,1.36-4.95,3.84-14,.66-2.4,1.2-4.33,1.54-5.52a2.25,2.25,0,0,1-.83-.1c-.59-.19-.95-.58-1.92-1.74-1.22-1.44-1.29-1.57-1.61-1.68s-.44.06-1.63-.09a6.39,6.39,0,0,0-1.17-.14c-.58,0-.75.15-1,0a1.31,1.31,0,0,1-.36-1.42c.16-.27.43-.1,1.22-.22a5.07,5.07,0,0,0,1.72-.64c.42-.26.85-.62.83-.69s-.68.32-1.76.58c-.54.13-.47,0-1.05.19-.82.2-1,.38-1.34.2a1,1,0,0,1-.41-1.05c.07-.14.26-.16.64-.19s.75,0,1.29-.06l.25,0a4.36,4.36,0,0,0,.92-.35,5.83,5.83,0,0,0,.61-.39c.38-.28,1-.81,1-.89s-1.29.69-3.06,1.16c-.46.13-.9.21-1,0s.15-.58.35-.81c.43-.49.89-.39,2-.55a5.37,5.37,0,0,0,1.78-.41,17,17,0,0,0,1.49-1.09c.85-.59,1.28-.89,1.71-.91s.62.22,1.41.23a5.27,5.27,0,0,0,1-.1c.75,0,1.27.7,2.26,2a48.44,48.44,0,0,1,2.84,3.95,6.13,6.13,0,0,1,1.09,2.57,6.82,6.82,0,0,1-.09,2.06c-.47,3.2-.1,3.32-.56,6.24-.29,1.86-.38,1.4-.85,3.92s-.47,3.56-1,7.19c-.33,2.06-.35,1.85-.58,3.37-.88,5.75-1.32,8.63-.56,11.27.45,1.55,1.11,2.53,1.28,4.78a19.13,19.13,0,0,1,0,2.69,23.15,23.15,0,0,1-.6,3.93Z" transform="translate(-38.73 -384.16)"/><path class="cls-1" d="M127.12,505.05c0,.37.15.59,0,.87,0,.05,0,0-.3.38s-.38.49-.55.55-.11,0-.36.07a1.65,1.65,0,0,0-.51.18c-.24.15-.17.24-.4.4s-.38.11-.61.3-.1.16-.26.31-.19.13-.63.35a3.6,3.6,0,0,1-.58.29c-.19.05-.79.13-.59.1h0a.58.58,0,0,0-.31-.22,1.39,1.39,0,0,0-.5,0,2,2,0,0,1-.55,0,1.22,1.22,0,0,1-.52-.19c-.3-.21-.27-.53-.35-1.36,0-.07-.06-.48-.18-1.29-.13-1-.16-.94-.18-1.18,0-.88.36-1.35.72-2.31a17,17,0,0,0,.46-2.46c.55-2.57,1.14-3.18.89-4.4a3.27,3.27,0,0,1-.09-1,5.2,5.2,0,0,1,.62-1.74,3.72,3.72,0,0,0-.08-2.35s-.29-2.31-.87-6.91a45.44,45.44,0,0,1-.41-5.18c0-2.79.27-3,.44-7.22.13-3.49.2-5.24-.1-6.07-.47-1.29-1.27-2.47-.71-3.91a3.09,3.09,0,0,1,1.25-1.55A4.75,4.75,0,0,1,124,459a4.9,4.9,0,0,1,2,0c.58.16.64.35,1.65.73.63.23.7.19,1,.34s.8.46,1.46,1.5a11,11,0,0,1,1.38,4.2.82.82,0,0,1-.11.71,1.21,1.21,0,0,1-1.27.2,1.29,1.29,0,0,1-.27-.2.91.91,0,0,1-.24-.65,30.91,30.91,0,0,1,.56,4.46,21.77,21.77,0,0,1-.43,4.58c-.41,2.74-.77,5.51-.94,7.14-.52,5-.69,12-1.4,13.7a3.87,3.87,0,0,0-.28,1,9.7,9.7,0,0,0,.17,1.79c0,.85-.14.9,0,1.71a11,11,0,0,1,.19,1.1,8.74,8.74,0,0,1-.07,1.43c-.06.59-.08.59-.14,1.18A8.38,8.38,0,0,0,127.12,505.05Z" transform="translate(-38.73 -384.16)"/><path class="cls-2" d="M129.22,484.55a7,7,0,0,0,2.37-.57,16,16,0,0,0,4.07-2.31,10,10,0,0,0,2.65-3.29,8.82,8.82,0,0,0,.83-3.47c.08-2.4-.86-4.37-1.07-4.33s.05.42-.21,1a2.6,2.6,0,0,1-1.52,1.33,5.32,5.32,0,0,1-1.72,0c-1.36,0-1.34-.05-1.69-.05-1.34,0-2,0-2.42.38-.26.24-.25.47-.36,1.31-.23,1.84-.36,1.51-.54,3.32-.05.49,0,.25-.15,1.95-.12,1.4-.17,2.11-.24,2.35-.35,1.26-1,1.94-.68,2.25C128.64,484.54,128.8,484.58,129.22,484.55Z" transform="translate(-38.73 -384.16)"/><path class="cls-2" d="M128.21,458.79c-.28.14-.62-.55-1.59-.63a7.47,7.47,0,0,0-1.49.23c-.87.13-.9.07-1.5.17a5.45,5.45,0,0,0-1.88.54c-1,.56-1,1.28-1.62,1.35-.49.06-.58-.35-1.34-.59a5.43,5.43,0,0,0-2.48.12,9.71,9.71,0,0,0-2.41.57,17.64,17.64,0,0,0-2.32,1.37c-1.78,1.08-2,1.09-2.18,1-.55-.18-.32-1-.66-2.8a24.28,24.28,0,0,0-1.15-3.55c-.7-1.88-1.08-2.55-.73-2.83s1.15-.09,1.61.26.3.58.79,1a2.49,2.49,0,0,0,1.16.54,4.7,4.7,0,0,0,1.24,0,2.55,2.55,0,0,1,.82-.05c.41.08.43.3.85.51a2.47,2.47,0,0,0,1.35.17,4.9,4.9,0,0,0,1.27-.38c1.22-.4,1.44-.23,1.9-.49.69-.38.86-1.09,1.11-1.95.92-3.1,1.38-2.73,1.51-4.08.25-2.56-1.41-3.65-.58-4.59.31-.35.62-.28,3-.72,2.63-.49,3.38-.79,3.64-.47s-.43.89-1.11,2.42a5.56,5.56,0,0,0-.68,3.82c.29.93.75.79,1.42,2.29.36.82.25.92.69,2s.68,1.22,1,2.18S128.61,458.6,128.21,458.79Z" transform="translate(-38.73 -384.16)"/><path class="cls-3" d="M119.4,449.29a11.85,11.85,0,0,1-.73,2.95c-.39,1.08-.6,1.63-1,1.94-.24.16-.56.29-1.29.74a3.36,3.36,0,0,0-.67.44,2,2,0,0,1-.34.31,1,1,0,0,1-.58.23,1,1,0,0,1-.47-.1c-.4-.18-.46-.41-.72-.6a2,2,0,0,0-1.15-.25c-.9-.05-1.08.21-1.67.06a2.44,2.44,0,0,1-.87-.47c-.41-.29-.4-.41-.7-.64-.56-.45-1-.32-1.9-.74a3.28,3.28,0,0,1-.94-.55c-1-.95.18-2.32-.69-3.85-.43-.77-.8-.55-1.2-1.36s-.12-1.23-.24-2.88c0-.49-.15-1.15-.39-2.48s-.37-2.11-.5-2.55c-.42-1.4-.81-1.71-1.44-3.66-.38-1.15-.44-1.64-.13-2.07a2.76,2.76,0,0,1,1.58-.85,3.3,3.3,0,0,1,2.14-.06c.63.27.87.78,1.29,1.68a3.65,3.65,0,0,1,.5,2c-.11,1.16-1,1.77-.66,2.09s1,.07,1.3,0a5.72,5.72,0,0,0,1.8-1,11.08,11.08,0,0,1,1.75-1.2c.08.07-.44.74-1,1.28a5.73,5.73,0,0,1-1.08.85c-.5.28-.83.34-.94.63a.48.48,0,0,0,.14.58c.2.1.47-.08,1.25-.41.34-.15.74-.3,1-.39a5.44,5.44,0,0,1,1.73-.27,5.07,5.07,0,0,1,2.29.9,5.94,5.94,0,0,1,1.77,1.25c.47.54.36.7,1,1.38s.76.61,1,1.09a6.62,6.62,0,0,1,.42,1.43c.07.27.15.63.24,1.12a11.85,11.85,0,0,1,.23,1.69A10.58,10.58,0,0,1,119.4,449.29Z" transform="translate(-38.73 -384.16)"/><path class="cls-2" d="M120.13,502.46c-.32,0-.4-.66-.7-2.73-.35-2.42-.44-3.06-.58-3.76a25.23,25.23,0,0,0-.82-2.92c-.27-.81-1-3.24-2.4-8.09s-1.49-5.52-2.44-8.26c-.75-2.13-.91-2.3-1.5-4a54.25,54.25,0,0,1-2.22-8.62c.49-.41.91-.71,1.18-.9a18.61,18.61,0,0,1,5.58-2.43,6.59,6.59,0,0,1,1.12-.18,4.5,4.5,0,0,1,1.24.06,3,3,0,0,1,.66.2,3,3,0,0,1,.63.35,2.73,2.73,0,0,1,.56.6c1.65,2.4,1.31,7.2,1.31,7.2-.21,2.89-.36,3.23-.55,5.55a40,40,0,0,0-.17,7.68c.09,1,.47,3.39,1.22,8.11a15.89,15.89,0,0,1,.23,1.9c.14,2.63-.6,3-.72,5.89a6.83,6.83,0,0,1-.54,3.05C121.12,501.34,120.57,502.5,120.13,502.46Z" transform="translate(-38.73 -384.16)"/><path class="cls-2" d="M126,449c.85,2.15.09,1,1.35,4.24.75,2,.8,1.78,1.35,3.28.83,2.26.56,2.19,1.2,3.69a40.35,40.35,0,0,0,1.75,3.72c.48.82.91,1.44.61,2a2.29,2.29,0,0,1-1.49.86,5.72,5.72,0,0,1-2.42-.14c-1-.18-1-.24-1.79-.38-1.65-.28-1.92,0-2.74-.35a5.68,5.68,0,0,1-1.69-1.25c-.9-.82-1.13-1.29-2-1.62a4.63,4.63,0,0,0-1-.26,4.28,4.28,0,0,0-1.43,0,2,2,0,0,0-1.22.49,1.87,1.87,0,0,1-.46.5c-.2.13-.38.15-.37.19a4.08,4.08,0,0,0,1.08,0,13,13,0,0,1,1.72-.16,3.1,3.1,0,0,1-.69.27,7.24,7.24,0,0,1-1.18.26,7.94,7.94,0,0,1-2.17-.26,5.69,5.69,0,0,0-2.12,0l-.89.28c-.36.12-.45.15-.45.19s.44.06,1.15.16a8.71,8.71,0,0,1,1.22.27,6.55,6.55,0,0,1,.74.29,2.76,2.76,0,0,1,.87.51,2.47,2.47,0,0,1-.72-.18l-2.2-.68a4.88,4.88,0,0,0-1.52-.27c-.33,0-.53,0-.63.16s0,.41.11.56.47.22,1.15.51c.3.12.22.12.72.34s.6.25,1,.43a5.28,5.28,0,0,1,1.16.6,7.83,7.83,0,0,1-1.06-.28c-.79-.19-.86-.15-1.33-.31a4,4,0,0,1-1-.45c-.37-.25-.55-.5-.68-.44s-.08.23-.08.39a1.52,1.52,0,0,0,.3.87,2.78,2.78,0,0,0,.73.54,4.88,4.88,0,0,0,1.06.55,6,6,0,0,0,1.19.23,4.62,4.62,0,0,1,2,.68,10.81,10.81,0,0,0-1.41-.13,7.14,7.14,0,0,1-.92,0,6,6,0,0,1-.88-.18c-.37-.09-.43-.13-.76-.21-.5-.11-.75-.17-.84-.07s0,.44.27.64.37.18.85.37.46.24.76.35a3.75,3.75,0,0,0,1.32.19c.8,0,1.59.14,2.38.2a14.49,14.49,0,0,0,2.59.22,19.49,19.49,0,0,1,2.22-.54,5.91,5.91,0,0,1,1.51.11c1.18.22,1.47.56,3.86,1.63a19,19,0,0,0,1.92.78,11.51,11.51,0,0,0,1.49.44c2.15.44,2.78-.66,4.91-.32a5,5,0,0,0,1.91,0,1.66,1.66,0,0,0,.87-.43,1.28,1.28,0,0,0,.32-.85c.14-1.57.35-1.21.41-2.76a14.7,14.7,0,0,0,0-1.7,30.28,30.28,0,0,0-1.57-6.37,46,46,0,0,1-1.39-7.51c-.54-3.77-.46-5-1.66-6.44a9.28,9.28,0,0,0-3.63-2.49,2.35,2.35,0,0,0-1.83-.29,1.93,1.93,0,0,0-.81.68,4.22,4.22,0,0,0-.47,1.18c-.29.75-.59.84-.8,1.33A2.73,2.73,0,0,0,126,449Z" transform="translate(-38.73 -384.16)"/><path class="cls-4" d="M111.75,472a9.1,9.1,0,0,0,1.65.05,12.11,12.11,0,0,0,2.52-.4,24.57,24.57,0,0,0,3.54-1.15c1.27-.53,1.64-.82,3.09-1.56,2-1,2.48-1.1,7-3.1l2.76-1.23a1.29,1.29,0,0,0,.12.47c.15.34.38.53,1.07,1,.86.62.93.66,1,.83s0,.27.19,1a4.63,4.63,0,0,1,.18.67c0,.34,0,.45.09.58a.65.65,0,0,0,.77.13c.13-.11,0-.26,0-.73a3.12,3.12,0,0,1,.2-1c.1-.27.24-.54.29-.53s-.12.41-.16,1.06c0,.32,0,.28,0,.63s-.11.64,0,.79a.51.51,0,0,0,.58.18c.07,0,.06-.16,0-.39s-.08-.43-.08-.75v-.15a2.57,2.57,0,0,1,.11-.57,2,2,0,0,1,.15-.37,2.4,2.4,0,0,1,.38-.65,18.07,18.07,0,0,0-.35,1.86c0,.28,0,.54.09.58s.29-.12.39-.25.13-.54.12-1.2a3.33,3.33,0,0,1,.07-1.07,7,7,0,0,1,.44-.94,2.23,2.23,0,0,0,.33-1.06c0-.29-.16-.35-.24-.81a4.64,4.64,0,0,1,0-.57c0-.44-.47-.7-1.25-1.2-1.37-.87-1.52-1-2.31-1.43a2.77,2.77,0,0,0-2.51-.3c-1.63.47-1.73.26-3.21.7-1,.29-.7.31-2,.74s-1.83.49-3.68,1c-1,.31-.94.31-1.71.54-2.94.87-4.41,1.3-5.86,1A8.72,8.72,0,0,0,113,464a8.12,8.12,0,0,0-1.41.17,10.58,10.58,0,0,0-2,.58Z" transform="translate(-38.73 -384.16)"/></g></svg>