<svg id="Layer_28" data-name="Layer 28" xmlns="http://www.w3.org/2000/svg" viewBox="0 0 335.08 443.2"><defs><style>.cls-1{fill:#0a0b0a;stroke:#0a0b0a;stroke-miterlimit:10;}</style></defs><title>head2brain</title><path class="cls-1" d="M1.17,789.86a28.25,28.25,0,0,1,0-16c2.68-8.38,9.11-12.58,17.92-19.19.94-.7,9.94-8.21,28-23.18,4.39-3.65,10.77-9.2,23.53-20.32,7.64-6.65,17.06-14.9,27.85-24.45,1.53-4.39,1-6.87,0-8.35s-1.75-1.2-2.78-2.79c-1.69-2.6-.29-4.41-1.55-7.74-.65-1.71-1.59-2.71-3.4-4.64-3.42-3.62-4.81-3.14-6.5-5.26-1.82-2.28-.74-3.49-1.55-13.62-.5-6.14-1-7.6,0-10.21,1.3-3.26,2.92-2.9,4-5.88,2.11-5.74-2.09-12-2.78-13a16.71,16.71,0,0,0-4.65-4.65A17.27,17.27,0,0,0,74,608.43c-5.13-1.57-7.83-8.12-11.14-16.41a84.63,84.63,0,0,1-5.57-18.88c-.91-5.61-3-11-3.41-16.71a6.66,6.66,0,0,0-.93-3.1,7.25,7.25,0,0,0-2.05-2.1c-1.37-1-2-.82-3.26-1.72a9.71,9.71,0,0,1-2.06-2.06c-3-3.51-4.45-5.28-5-6a34.65,34.65,0,0,1-2.92-4.3c-.86-1.69-.8-2.21-2.24-6.88-1-3.14-1.46-4.73-2.06-5.67-1.43-2.24-2.42-2.16-3.61-4.29-.48-.87-.79-1.73-1.37-5.33-.65-4-.56-4.74-1-8.08-.82-5.79-1.59-7.13-.52-8.59,1.29-1.76,3.89-1.87,4.3-1.89a9.31,9.31,0,0,1,5.15,1.72c2.29,1.31,2.68,2.26,4.47,2.57.46.08,2.28.4,3.1-.51,1.24-1.39-.55-4.87-1.07-5.93-3.1-6.29-3.18-13.66-5.19-20.37-4.38-14.6-2.91-31-2.4-35.55.83-7.52,2.25-19.21,9.59-31.56,3.7-6.24,7.46-10.18,13-16a118.84,118.84,0,0,1,23-19.38c9-5.74,16.23-8.56,26.57-12.58,9.21-3.58,14.73-5.69,22.76-6.79a77.72,77.72,0,0,1,20.37,0c17.2,2,29.65,8.36,36.95,12.18A132.1,132.1,0,0,1,205,375.43a138.12,138.12,0,0,1,23.16,22,68.85,68.85,0,0,1,12.39,28.36c.62,3.45.74,6.82,1,13.58.55,14.67,1.42,38-3.39,46.93-1.22,2.27-1.75,4.78-2.8,9.79-.23,1.12-.52,2.65.2,3.19.52.39,1.39.14,4.4-1.4,4.37-2.23,4.67-2.8,6.39-3.19a8.38,8.38,0,0,1,5.59.4c2.82,1.4,3.75,4.51,4.19,6,1.37,4.57-.09,8.8-1.33,12.4a23.86,23.86,0,0,1-2.06,4.59c-.93,1.59-1.37,1.89-3.8,5.06-2,2.69-3.09,4.06-3.64,5.38-.41,1-.31,1.07-1.26,4.91-.57,2.29-.93,3.73-1.43,5.38-1,3.4-1.55,5.15-2.85,7.28a20.44,20.44,0,0,1-3.48,4.28c-1.7,1.59-3.12,2.93-5.38,3.64-1.66.52-2.43.27-3.32,1.1s-1.09,1.95-1.27,3.8c-.31,3.29.48,4.36-.16,7.44-.2,1-.24.7-.47,1.74-.75,3.4.15,4.28-.16,7.76-.26,2.83-1,3.52-.32,4.91a6.7,6.7,0,0,0,2.38,2.37c2.25,1.67,3.22,1.4,3.79,2.53s-.16,1.51,0,3.64c.14,1.71.62,1.8,1.11,4a12.27,12.27,0,0,1,.32,5.54c-.41,1.94-1.12,2.15-1.27,4.12a10.09,10.09,0,0,0,.32,3.16c.5,2.06,1.09,2.1,1.42,3.8.43,2.14-.34,3,.32,3.64s2-.17,4.59-.16c1,0,4,0,6,2.06a5.92,5.92,0,0,1,1.75,5.06c-.42,1.92-2,2.36-1.75,3.49s2,.85,4.44,2.69c1,.78,3.32,2.48,3.8,5.06.15.85,0,1.36.47,1.74.91.8,2.69-.34,4.27-.63,3.08-.57,5.67,2,8.13,3.8,6.6,4.95,8.83,2.51,16.64,7.44,3.91,2.47,4,3.47,9.7,8.49,4.82,4.22,8.21,6.51,15.77,11.73,6.84,4.72,15.28,10.59,26.72,18.6V793.58H1.17Z" transform="translate(0.5 -350.88)"/></svg>