<svg id="head3inside" xmlns="http://www.w3.org/2000/svg" viewBox="0 0 214.08 203.46"><defs><style>.cls-1{fill:#b29180;}.cls-1,.cls-2,.cls-3,.cls-4,.cls-5{stroke:#0a0b0a;stroke-miterlimit:10;}.cls-2{fill:#9e8577;}.cls-3{fill:#c9a38e;}.cls-4{fill:#b4a296;}.cls-5{fill:#cea58a;}</style></defs><title>head3insides</title><g id="Layer_3" data-name="Layer 3"><path class="cls-1" d="M579.1,494.79c-1.61,1.19-7.07-5-7.52-5.49A39.5,39.5,0,0,1,564.41,477c-.51-1.34-2.42-6.55-3.45-16.21-.71-6.57-.26-13.7.64-28,0,0,.18-2.81,3.16-15.53.44-1.87,1.11-4.6,3-5.22,1.43-.48,2.37.71,4.92,1.26,2.38.52,2.52-.31,6.64-.54,2-.12,1.32.12,8.85.56,2.74.15,3.55.16,4.78.74,1.43.66,2.12,1.47,4.36,3.89,5.46,5.91,6.18,6.35,6.31,7.84.1,1.18-.46,2.58-1.57,5.37-.59,1.49-1.24,2.8-1.72,3.75-1.17,2.33-1.45,2.54-2,3.81a19.58,19.58,0,0,0-1.07,4.42c-.93,5.81-.34,7.66-1.14,8-1.44.66-3.36-5.33-8.14-7.38a10.75,10.75,0,0,0-11.84,3c-3.29,3.74-3,9.12-2.68,16.44a71.26,71.26,0,0,0,1.65,11.49c.58,2.68.86,3.38,2.08,8.34C579.8,493.7,579.48,494.51,579.1,494.79Z" transform="translate(-560.11 -345.03)"/></g><g id="Layer_5" data-name="Layer 5"><path class="cls-2" d="M568.89,409.64c-1.39-2.7,1.62-7.06,3.81-10.25,2.38-3.45,4.88-6,12.25-12.36,5.18-4.44,7.77-6.67,9.36-7.61,4.26-2.53,10-5.95,16.63-4,1.38.41,5.66,1.67,7.95,5.77,1.38,2.48,1.38,4.81,1.2,10.25-.29,8.76-.62,13.49-.77,17.56-.3,8-.45,11.94.32,16.51,1.29,7.72,3.37,9.36,3,15.38-.14,2.27-.49,7.11-3.78,10.4-.55.55-3.93,3.93-7.35,2.61-2.43-.93-3.54-3.71-5.25-8a28.65,28.65,0,0,1-2.39-11.2c.05-4.68,1.39-4.49,1.81-9.6.55-6.68-1.76-7.07-1.18-14,.27-3.23,1-5.29.14-8.72-.56-2.29-1.69-4.82-2.26-4.71s-.5,2.07-.39,4.44c.54,12,3.44,21.61,2.4,22-.27.11-.6-.46-3.59-4.53a56.25,56.25,0,0,0-3.67-4.78c-2.28-2.1-4.78-2.5-8.21-3.05a31.32,31.32,0,0,0-7.48-.22c-3.42.29-4,.89-6.36.66C573.44,412.12,570,411.79,568.89,409.64Z" transform="translate(-560.11 -345.03)"/><g id="Layer_4" data-name="Layer 4"><path class="cls-3" d="M577.22,448.28a9.41,9.41,0,0,0-1.3,5.12c-.3,8.82-.45,13.23-.29,15,.85,9.16,2.19,7.67,2.84,15.91a18.42,18.42,0,0,0,2,8.16,10.63,10.63,0,0,0,3.6,4.09c2.18,1.3,4.27,1,8.58.08,5.52-1.16,8.29-1.75,10.22-2.37a98,98,0,0,0,14.44-6.18c.71-.36,3.74-1.86,8.55-4.54,9.73-5.4,10.3-6.42,14.64-8.63,10.56-5.38,20.44-6.06,20.49-5.85s-2,.59-8.2,2.69a87,87,0,0,0-10.43,4c-.71.35-1.65.82-5.93,3.32-8.39,4.91-8.59,5.32-14.14,8.5-4.94,2.83-6.2,3.32-9.12,5.4a54.68,54.68,0,0,0-5.48,4.13c-1.47,1.53-2.13,2.69-3.7,2.94a16.36,16.36,0,0,1-3.73-.45c-1.4-.23-1.57-.3-2.78-.5-2.28-.38-3.43-.56-4-.37-2.16.68-3,3.46-3,3.61-.61,2.13.26,3.53.73,6.17.89,4.93-.52,9.21-2.07,14-1.23,3.74-2.26,6.08-2.26,6.08-1.37,3.08-2.53,4.9-2,7,.09.32.46,1.73,1.42,2.14a1.82,1.82,0,0,0,1.28,0,9.94,9.94,0,0,0,3.13-1.37,29.11,29.11,0,0,0,5.54-5.65,101,101,0,0,1,7.69-9.42c4.45-4.77,7.49-6.39,7-9-.23-1.29-1.25-2.32-1.3-4.68a3.28,3.28,0,0,1,.58-2.35c.66-.69,1.48-.27,1.83-.9s-.55-1.6-.29-2.72a2.68,2.68,0,0,1,2.63-1.83c1.32,0,1.72,1.17,3.35,2.1s2.86.84,5.21.76a19,19,0,0,0,6.13-1.23c4.22-1.59,5.91-3.47,9.92-6.15,2.59-1.74,1.74-.85,9.64-5.2,4.15-2.29,6.93-3.94,12.47-7.23,4.39-2.61,5.85-3.54,7.67-4.86,6.27-4.54,7.27-6.81,7.69-8.39a14,14,0,0,0-.17-6.87c-.74-3.21-1.81-3.55-4.44-9-2.2-4.58-2.06-5.58-3.46-6.65-2-1.54-4.49-1.06-7.79-.26a121.62,121.62,0,0,0-13,3.68c-4.53,1.54-11.58,2.23-25.67,3.62-3.47.35-4.85.42-8.84.87-3.46.39-7,.42-10.39,1.09-3.62.72-5.8,1.55-7,.17-.65-.75-.32-1.35-1.4-4.11a11.72,11.72,0,0,0-1.86-3.56,10.53,10.53,0,0,0-3.22-2.38,9.82,9.82,0,0,0-3.46-1.53,7.15,7.15,0,0,0-3.77.51A8.67,8.67,0,0,0,577.22,448.28Z" transform="translate(-560.11 -345.03)"/><path class="cls-4" d="M619,420.81a18.93,18.93,0,0,1,2.75,2.32,13.93,13.93,0,0,1,3.88,6.84c.21,1,.82,4.69-1,7.71a5.53,5.53,0,0,1-2.5,2.4c-.64.25-2.28.72-5.74-1.24-1.68-.94-5.44-3.39-9.13-9.25-2.24-3.55-1.67-3.93-4.32-8a29,29,0,0,0-5.71-6.73,12.85,12.85,0,0,0-4.94-3c-2.37-.65-2.81.29-6.76.27s-3.86-1-6.67-.64-4.22,1.47-5.8.38c-.76-.52-1.44-1.46-1.28-2s1-.45,3.45-.5c3.63-.08,4.13-.2,4.21-.52.14-.56-1.07-1.59-2.05-2.11s-1.3-.35-3.51-.95c-1.63-.45-2-.7-2.29-1.1-.51-.76-.6-2-.17-2.35s.95.26,3,1.24c.32.15,1.14.48,2.79,1.13,2.27.91,2.76,1,3,.76s.2-1.31,0-1.9-.76-1.11-2.85-2.23-2.85-1.26-3.31-2.11-.53-2-.1-2.36c.12-.1.44-.27,3.34,1.39a18.53,18.53,0,0,0,2.56,1.35c.81.33,1.87.77,2.05.44s-.5-1.27-1.09-1.87c-1.48-1.52-2.75-1.25-3.25-2.45a1.8,1.8,0,0,1,.11-1.78c.4-.39,1.1,0,2.32.38,2,.69,1.83.29,3.49.88,2.7,1,3.59,2.14,4.36,1.61a1.71,1.71,0,0,0,.52-1.8c-.34-1.1-1.87-1.08-5.13-2.46-1.79-.75-3-1.28-3-1.79s2.12-1.35,4.11-.78c1.27.36,1.77,1,3.58,2.36,2.07,1.52,2.47,1.41,4.34,2.66a28.64,28.64,0,0,1,6.13,5.62c1.79,2.15,2.38,3.48,4.82,5.95.7.71,1.24,1.19,1.73,1.64C617.57,419.7,617.48,419.71,619,420.81Z" transform="translate(-560.11 -345.03)"/></g></g><g id="Layer_7" data-name="Layer 7"><path class="cls-5" d="M593,534.38c-2.33.66-4.27,5.46-3.07,7.86.57,1.14,1.49,1,2.29,2.64.7,1.42.28,2.1.81,2.67,1.14,1.23,4.61-.29,7.22-2.47a19.87,19.87,0,0,0,4.49-5.68c2.71-4.6,5.31-6,10.52-10.57,6.09-5.33,4.91-5.48,19.78-20.82,10.32-10.64,17.88-17.78,17.18-18.82-.21-.31-1.14,0-1.94.31-2.09.75-2.41,2-4.46,3.26-1.48.91-1.52.4-3.78,1.58a27,27,0,0,0-3.41,2.2c-2.91,2-2.89,2.37-4.76,3.49a38.4,38.4,0,0,1-3.57,1.84c-1.95.89-2,.71-2.64,1.14-1.78,1.11-1.77,2.38-3.55,4.7a19.18,19.18,0,0,1-4.24,3.91c-2,1.51-3,2.26-4.53,2.72-2.38.72-3.4,0-5.06,1.18-.85.6-.65.85-2.13,2.6-2,2.4-2.57,2.19-4.63,4.57-1.2,1.4-1.06,1.54-2.63,3.36-1.15,1.33-1.26,1.31-2.4,2.67a26.18,26.18,0,0,0-2.52,3.25,5,5,0,0,1-1.19,1.65A4,4,0,0,1,593,534.38Z" transform="translate(-560.11 -345.03)"/><path class="cls-1" d="M688.65,406.89c-.68-1,2.84-4.16,3.13-4.42a21.43,21.43,0,0,1,7-4.1,35,35,0,0,1,9.25-1.83c3.74-.32,7.8,0,15.93.8a75.17,75.17,0,0,1,8.85,2.12c1.06.29,2.62.74,3,1.85.28.86-.4,1.4-.72,2.92s.18,1.52.31,4c.07,1.21-.07.79-.32,5.29a7.12,7.12,0,0,1-.43,2.85c-.38.84-.84,1.24-2.22,2.55-3.36,3.17-3.62,3.6-4.46,3.65-.68.05-1.47-.31-3.06-1-.85-.38-1.6-.79-2.14-1.09-1.33-.73-1.45-.91-2.17-1.23a11.19,11.19,0,0,0-2.52-.71c-3.31-.64-4.37-.32-4.58-.8-.37-.87,3-1.93,4.21-4.76a6.75,6.75,0,0,0-1.68-7.13c-2.13-2-5.19-1.94-9.37-1.84a38,38,0,0,0-6.54.82c-1.53.3-1.93.46-4.75,1.12C689.27,407.32,688.81,407.12,688.65,406.89Z" transform="translate(-560.11 -345.03)"/><path class="cls-2" d="M737.18,402.05c1.54-.79,4,1.07,5.84,2.43s3.44,3,7,7.51a61.87,61.87,0,0,1,4.33,5.71c1.44,2.59,3.39,6.08,2.27,10a7.48,7.48,0,0,1-3.29,4.66c-1.41.79-2.74.76-5.84.57-5-.3-7.69-.57-10-.73-4.54-.29-6.81-.44-9.41-.05-4.4.66-5.33,1.88-8.76,1.58-1.29-.12-4.05-.4-5.93-2.42-.31-.33-2.24-2.41-1.48-4.44.53-1.43,2.11-2.06,4.55-3a15.4,15.4,0,0,1,6.38-1.26c2.67.1,2.56.9,5.47,1.23,3.81.43,4-.95,8-.5,1.84.21,3,.65,5,.21,1.3-.29,2.74-.93,2.68-1.28s-1.18-.32-2.53-.3c-6.83.15-12.32,1.74-12.56,1.11-.06-.16.26-.35,2.58-2.08a30.49,30.49,0,0,0,2.73-2.12c1.19-1.34,1.42-2.83,1.74-4.87a19.51,19.51,0,0,0,.13-4.47c-.17-2.05-.51-2.4-.38-3.81C735.76,404.73,736,402.67,737.18,402.05Z" transform="translate(-560.11 -345.03)"/><path class="cls-3" d="M715.16,406.46a5.29,5.29,0,0,0-2.92-.86c-5-.31-7.54-.47-8.56-.4-5.22.37-4.37,1.2-9.07,1.46a10,10,0,0,0-4.65,1.1,5.92,5.92,0,0,0-2.33,2.09c-.75,1.29-.56,2.54,0,5.13.66,3.32,1,5,1.35,6.15a61.66,61.66,0,0,0,3.52,8.73c.2.44,1,2.27,2.58,5.19,3.07,5.9,3.65,6.25,4.91,8.88a32.53,32.53,0,0,1,3.33,12.35c-.06,0-.34-1.2-1.53-4.95a53.92,53.92,0,0,0-2.27-6.3c-.19-.43-.46-1-1.89-3.6-2.79-5.09-3-5.21-4.83-8.58a58.59,58.59,0,0,0-3.08-5.53,34,34,0,0,0-2.35-3.35c-.87-.9-1.53-1.31-1.68-2.25a10.12,10.12,0,0,1,.26-2.23c.13-.83.17-.93.29-1.65a7.61,7.61,0,0,0,.21-2.41,3.36,3.36,0,0,0-2.06-1.88c-1.21-.39-2,.11-3.51.35-2.81.46-5.25-.45-8-1.45-2.13-.79-3.47-1.44-3.47-1.44-1.75-.86-2.79-1.59-4-1.28-.18,0-1,.25-1.22.82a1.14,1.14,0,0,0,0,.77,6.05,6.05,0,0,0,.78,1.89,17.67,17.67,0,0,0,3.22,3.4,60.5,60.5,0,0,1,5.36,4.74c2.72,2.73,3.64,4.57,5.11,4.34.73-.12,1.32-.72,2.66-.71a1.79,1.79,0,0,1,1.34.38c.39.4.15.89.51,1.11s.92-.3,1.56-.14a1.66,1.66,0,0,1,1,1.61c0,.79-.67,1-1.2,2a5.48,5.48,0,0,0-.44,3.11,12.22,12.22,0,0,0,.7,3.68c.91,2.55,2,3.59,3.51,6,1,1.58.48,1.06,3,5.85,1.3,2.52,2.24,4.2,4.11,7.57,1.49,2.66,2,3.55,2.77,4.66,2.59,3.82,3.88,4.45,4.78,4.72a7.57,7.57,0,0,0,3.92,0c1.83-.39,2-1,5.15-2.52,2.61-1.25,3.18-1.14,3.79-2,.88-1.2.6-2.67.15-4.65a78,78,0,0,0-2.09-7.82c-.88-2.74-1.27-7-2.06-15.41-.19-2.09-.24-2.91-.49-5.3-.22-2.08-.24-4.19-.62-6.24s-.88-3.49-.1-4.19c.43-.38.78-.17,2.35-.77a6.49,6.49,0,0,0,2-1.06,6.14,6.14,0,0,0,1.35-1.89,6,6,0,0,0,.88-2.05,4.5,4.5,0,0,0-.29-2.26A5.37,5.37,0,0,0,715.16,406.46Z" transform="translate(-560.11 -345.03)"/><path class="cls-4" d="M730.8,431.83a10.12,10.12,0,0,1-1.33,1.61,7.57,7.57,0,0,1-3.9,2.22,6.15,6.15,0,0,1-4.39-.73,3.3,3.3,0,0,1-1.36-1.54c-.15-.38-.42-1.37.7-3.41a14.77,14.77,0,0,1,5.28-5.32c2-1.29,2.24-.94,4.54-2.47a16.4,16.4,0,0,0,3.84-3.31A7.54,7.54,0,0,0,735.9,416c.38-1.41-.16-1.69-.15-4.05s.58-2.3.37-4-.83-2.55-.21-3.48c.29-.44.83-.84,1.13-.73s.26.6.29,2.07c0,2.17.11,2.47.29,2.52s.9-.61,1.2-1.19a10.53,10.53,0,0,0,.55-2.09c.25-1,.39-1.19.62-1.35.44-.3,1.14-.33,1.34-.06s-.15.56-.71,1.78c-.08.19-.27.68-.64,1.65-.52,1.35-.6,1.64-.43,1.81s.74.14,1.08,0,.63-.43,1.27-1.67.72-1.68,1.21-1.95,1.14-.28,1.34,0c.06.07.15.26-.79,2a10.34,10.34,0,0,0-.77,1.52c-.19.48-.44,1.1-.26,1.22s.73-.28,1.07-.63c.87-.86.71-1.62,1.4-1.91a1,1,0,0,1,1,.1c.22.24,0,.65-.21,1.38-.4,1.21-.17,1.09-.51,2.07-.54,1.61-1.22,2.12-.92,2.59a1,1,0,0,0,1,.34c.62-.19.61-1.11,1.4-3,.43-1.07.73-1.8,1-1.78s.77,1.29.45,2.47c-.21.76-.6,1.05-1.35,2.11-.87,1.21-.8,1.45-1.51,2.55a16.45,16.45,0,0,1-3.21,3.59,33.17,33.17,0,0,0-3.39,2.79c-.41.41-.68.72-.94,1C731.43,431,731.42,431,730.8,431.83Z" transform="translate(-560.11 -345.03)"/><path class="cls-5" d="M666.08,414.59c-.37-1.4-3.11-2.63-4.48-1.95-.65.33-.58.88-1.5,1.33s-1.2.14-1.53.45c-.7.66.17,2.76,1.41,4.35a11.72,11.72,0,0,0,3.24,2.77c2.62,1.69,3.42,3.27,6,6.45,3,3.73,3.12,3,11.86,12.15,6.06,6.33,10.13,11,10.72,10.56.18-.13,0-.69-.18-1.17-.43-1.26-1.13-1.47-1.85-2.72-.52-.9-.23-.91-.9-2.28a17.19,17.19,0,0,0-1.26-2.08c-1.16-1.76-1.35-1.76-2-2.89a22.14,22.14,0,0,1-1-2.17c-.51-1.18-.41-1.18-.65-1.59-.63-1.09-1.36-1.1-2.68-2.2A12.23,12.23,0,0,1,679,431a9.09,9.09,0,0,1-1.55-2.75c-.41-1.44,0-2-.67-3.05-.34-.52-.48-.4-1.48-1.31-1.36-1.24-1.24-1.57-2.6-2.84-.8-.73-.87-.65-1.91-1.62-.76-.71-.75-.78-1.52-1.48a16.38,16.38,0,0,0-1.85-1.55,3,3,0,0,1-.94-.74A2.42,2.42,0,0,1,666.08,414.59Z" transform="translate(-560.11 -345.03)"/><path class="cls-4" d="M678.08,427.38c.11-.58.8-.89,1.66-1.29.36-.16,1.78-.81,2-.48s-.14.61-.23.75c-.35.5-.67.48-1.25.95-.77.63-.81,1.17-1.31,1.21a.94.94,0,0,1-.62-.23A1,1,0,0,1,678.08,427.38Z" transform="translate(-560.11 -345.03)"/><path class="cls-4" d="M679.06,429.05a1.18,1.18,0,0,1,1.37-.86,3.59,3.59,0,0,1,.88-.88,2.43,2.43,0,0,1,1.34-.55c.12,0,.64,0,.74.2s0,.28-.58.86-.74.65-1.26,1.17-.67.78-1.1.92a1.23,1.23,0,0,1-.74,0A.93.93,0,0,1,679.06,429.05Z" transform="translate(-560.11 -345.03)"/><path class="cls-4" d="M680.82,430.8c.18-.6.68-.69,1.43-1.37.93-.84.87-1.34,1.59-1.59.45-.15,1-.16,1.18.07s-.37.56-.93,1.49-.52,1.55-1.15,1.92a2.88,2.88,0,0,1-1,.28c-.46.08-.87.14-1.08-.06S680.8,430.89,680.82,430.8Z" transform="translate(-560.11 -345.03)"/><path class="cls-5" d="M739.76,433.55a6.17,6.17,0,0,0-2.52,1.48,5.73,5.73,0,0,0-1.63,3c-.5,2.73,1.48,4.1.58,5.39-.69,1-2,.44-2.72,1.37-1.3,1.72,1.75,5.6,2.75,6.88a28.68,28.68,0,0,0,4.07,4c3.07,2.69,4.64,4,6.15,4,1.67-.05,1.72-1.15,4.89-2.43,2.58-1,2.72-.39,5.89-1.47,3.36-1.14,3.92-2.12,6.11-2.08a16.71,16.71,0,0,1,3.34.58c2.28.52,3.69,1.1,3.85.85s-2.61-1.67-2.3-2.74c.2-.69,1.48-.51,2.94-1.49a6.21,6.21,0,0,0,2.45-3.62c.24-1.09,0-2-1.46-5.11a73.52,73.52,0,0,0-4.14-7.59c-1.92-3.14-2.68-4-4-4.28s-1.91.4-2.87,0c-1.89-.87-1.53-4.26-2-4.25s-.36,1.87-1.47,4.11a7.09,7.09,0,0,1-3.13,3.62c-.86.41-2,.43-4.24.44a38.07,38.07,0,0,1-5.17-.22C742,433.6,741.33,433.09,739.76,433.55Z" transform="translate(-560.11 -345.03)"/></g><g id="Layer_8" data-name="Layer 8"><path class="cls-4" d="M613.82,513.32c-1-.19-1.53-1.4-2.23-2.92-.29-.63-1.44-3.13-.9-3.59.31-.26,1,.25,1.26.41.86.6.84,1.17,1.66,2.18,1.09,1.35,2,1.43,2.07,2.3a1.58,1.58,0,0,1-.36,1.08A1.55,1.55,0,0,1,613.82,513.32Z" transform="translate(-560.11 -345.03)"/><path class="cls-4" d="M616.57,511.59a2.11,2.11,0,0,1-1.5-2.39,6.62,6.62,0,0,1-1.51-1.55,4.46,4.46,0,0,1-1-2.36c0-.21-.07-1.12.3-1.29.19-.09.47,0,1.46,1s1.12,1.29,2,2.2,1.34,1.18,1.59,1.93a2.1,2.1,0,0,1,.08,1.3A1.49,1.49,0,0,1,616.57,511.59Z" transform="translate(-560.11 -345.03)"/><path class="cls-4" d="M619.42,508.5c-1-.31-1.19-1.19-2.36-2.5-1.45-1.63-2.28-1.53-2.73-2.8-.27-.78-.32-1.82.07-2.06s1,.64,2.53,1.63c1.79,1.12,2.62.91,3.25,2a5,5,0,0,1,.52,1.69c.15.8.28,1.52-.06,1.89S619.57,508.55,619.42,508.5Z" transform="translate(-560.11 -345.03)"/><path class="cls-5" d="M621.44,405.09A11.34,11.34,0,0,0,624,409.5a9.75,9.75,0,0,0,5.13,2.85c4.58.89,6.79-2.59,9-1,1.68,1.2.81,3.53,2.39,4.76,2.94,2.28,9.29-3.07,11.39-4.83a47.64,47.64,0,0,0,6.52-7.14c4.38-5.39,6.56-8.14,6.42-10.79-.17-2.93-2-3-4.29-8.58-1.86-4.52-.77-4.78-2.71-10.34-2.05-5.89-3.71-6.87-3.74-10.71a29.81,29.81,0,0,1,.81-5.87c.77-4,1.69-6.48,1.27-6.74-.61-.39-2.69,4.56-4.49,4-1.16-.34-.91-2.59-2.63-5.16a10.63,10.63,0,0,0-6.15-4.28c-1.83-.42-3.29,0-8.47,2.57a116.6,116.6,0,0,0-12.52,7.25c-5.15,3.38-6.64,4.72-7,6.95s.75,3.34,0,5c-1.37,3.31-7,2.68-7,3.58,0,.67,3.15.62,6.93,2.56,1.88,1,4.71,2.42,6.2,5.5.72,1.5.79,3.5.91,7.43a68.54,68.54,0,0,1-.15,9.07C621.41,401.12,620.59,402.33,621.44,405.09Z" transform="translate(-560.11 -345.03)"/></g></svg>