<svg id="Layer_2" data-name="Layer 2" xmlns="http://www.w3.org/2000/svg" viewBox="0 0 648.27 956.14"><defs><style>.cls-1{fill:#0b0000;stroke:#171616;stroke-miterlimit:10;}</style></defs><title>head2</title><path class="cls-1" d="M806.81,682c2-6.67,3.87-8.87,8.26-17.85,1.4-2.87,4.12-8.54,6.76-15.42,4-10.48,3.89-13.59,7.51-23.53a99.12,99.12,0,0,1,7.51-17c4.6-8,6.78-8.69,12.77-18.66,7.28-12.14,6.65-15.47,6-17-.94-2.3-2.34-2-7.51-7.3a43.75,43.75,0,0,1-6-7.3,36,36,0,0,1-4.51-10.55c-1.37-5.83.16-6.89,0-17.85-.12-8.27-1-9.18,0-13,1.1-4.12,2.86-5.7,6-10.55a106.51,106.51,0,0,0,8.26-16.22c.79-2,2.29-5.92,5.26-21.91,2.83-15.31,1.82-13.64,3.75-22.72,3.12-14.71,6.76-27.58,6.76-27.58,2-7,2.7-8.83,2.25-12.17-1-7.57-6.27-9.2-9-17-2.12-6.07.33-7.09,0-18.66-.45-15.8-5.13-17.61-3.75-29.2a47.56,47.56,0,0,1,6-17.85c3.4-5.75,5.37-5.91,10.52-13.8A110,110,0,0,0,881.16,295c4.17-8.82,3.71-10.19,6.76-14.6a39.15,39.15,0,0,1,9.76-9.74c4.39-3.17,8.24-4.59,15.77-7.3,11.58-4.17,13.06-3.19,18-6.49s4.06-4.6,10.52-9.73a67,67,0,0,1,15-8.93c6.45-2.75,8.32-2.21,19.52-4.87,11.79-2.8,11.93-3.92,22.53-6.49,14.71-3.56,15.31-1.6,23.28-4.05,12.35-3.8,12.4-8.94,29.29-19.48a126.85,126.85,0,0,1,35.3-15.41c11-2.77,19.21-3,28.53-3.25,9.51-.25,36.67-.77,63.84,8.93,4.67,1.67,12.55,4.78,25.53,8.92,9.46,3,10.77,3.12,15.77,4.87,11.79,4.14,16.85,7.92,29.29,14.61,23.43,12.59,24.95,9.63,36.8,17.84,10,6.9,15.87,13.84,24,23.53,19.25,22.87,20,33.37,45.81,71.4,4.76,7,9.47,14.1,14.27,21.09,10.86,15.82,14,19.82,18,27.58,2.86,5.47,5.2,11.83,9.76,24.34,9,24.73,13.56,37.34,14.27,49.49s1.08,18.27-1.5,26c-2.23,6.66-5.46,11-4.5,17.84.22,1.6.61,2.9,5.25,11.36,8.73,15.91,10.79,17.58,12.77,18.66,4.74,2.58,11.42,3.07,13.52,0,2.56-3.75-2.72-11.34-1.51-12.17s6.71,4.58,9.77,12.17a36.06,36.06,0,0,1,2.25,16.23c-.22,3.38-1.12,17.44-10.51,26-8.4,7.62-18.6,6.28-19.53,12.17-.42,2.67,1.58,3.56,1.5,8.11,0,1-.18,5-3.75,10.55-3.68,5.75-7.66,8.09-10.52,10.55-6.72,5.78-5.6,10.82-13.51,30-6.67,16.15-7.48,12.61-12,25.15-4.19,11.57-4.58,17.58-10.51,28.39a58,58,0,0,1-7.51,11.36c-4.35,5-6.73,5.67-11.27,11.36-2.82,3.54-4.73,5.93-6,9.73-.77,2.32-.92,4-.75,15.42.17,11,.35,12,0,15.41-.15,1.57-.85,5.1-2.25,12.17-2,9.91-2.41,11.41-3.75,13-3.19,3.73-8,.87-9.77,4.06-.51.93-.16,3.35.56,8.14.9,6,1.36,9.09,1.48,9.63,1.08,4.94,1.64,4.9,3.34,11.23,1.65,6.13,1.31,6.85,2.6,10.43a42.42,42.42,0,0,0,4.83,9.23c4.51,7.1,8.68,17,9.79,25.1.86,6.31-.12,11.58-2.74,20.7-7.76,27-16.43,43.38-16.43,43.38-10.52,19.9-20.24,32.93-39.24,58.17-9.77,13-17.28,22.38-30.11,38.44-34,42.54-31.61,37.22-36.5,45.35-5.44,9-22.57,39.15-33.77,49.3a51.53,51.53,0,0,1-11.86,7.88c-3,1.63-5.52,2-9.55,3-10.27,2.59-11.23,1.24-18.06,3.42s-7.14,4-12.86,4.93c-3.63.6-8.19,1.35-12.44-.9-2.44-1.28-4.08-3.18-10.37-16.57-3.08-6.55-4.33-9.6-8.3-18.38-3-6.57-4.46-9.86-6.22-13.44-2.43-4.94-4.66-9-9.12-17-6.21-11.19-10.72-18.85-12-21.06-4.51-7.61-4-6.52-5.39-9-7.93-14.33-10.95-28.29-13.28-39.43-1-5-.27-2.24-2.9-17s-3.58-18.61-3.32-25.54c.19-4.8.7-4.33,1.25-12.54.47-7.16.12-8.21.41-17,.44-13.46,1.36-14.75,0-17.93-2.71-6.32-10.11-8.72-13.27-9.85a36.07,36.07,0,0,0-8.71-1.8,55,55,0,0,0-10.37,0c-5.45.42-7.78,1-15.35,2.25-6.11,1-9.17,1.45-12.86,1.79-8,.72-8.32-.1-19.08.45-6.63.33-7.79.71-14.51.89-1,0-3.5.09-10.79,0-19.88-.24-23.42-1-27-2.24a44.67,44.67,0,0,1-8.29-4c-3.58-2.21-7.05-4.35-10-8.52s-3.72-8-4.56-11.65c-.43-1.88-.83-4.17-1.24-13.89-.37-8.73-.25-11.78-.83-18.37-.82-9.3-1.79-11.45-3.32-13-1.94-2-3-1.1-8.3-3.59-4.11-1.92-7.5-3.51-10-7.17-1.83-2.73-2.33-5.41-2.9-8.51s-1.26-6.73,0-11.2a19.43,19.43,0,0,1,4.14-7.62c4-4.45,8.49-4.85,8.3-6.27-.1-.73-1.31-.91-6.22-2.24-5.24-1.42-3.89-1.22-7.88-2.24-6.6-1.69-6.84-1.36-8.3-2.24-3.52-2.15-5.08-5.89-5.81-7.62-.46-1.12-1.29-3.38-1.65-15.24-.22-6.86,0-8.34-.83-11.65a29,29,0,0,0-3.32-8.06c-1.78-2.91-3.85-6.3-7.47-7.62-2.07-.76-2.33,0-8.71,0-.63,0-4.17,0-8.29-.45-4.74-.5-7.1-.74-10-1.79A29.11,29.11,0,0,1,810.89,725a31.56,31.56,0,0,1-5.39-7.17,27,27,0,0,1-3.73-12.1c-.11-2.83.39-3.82,2.49-12.55C806.48,683.94,805.93,685,806.81,682Z" transform="translate(-801.25 -184.05)"/></svg>