<svg id="Layer_2" data-name="Layer 2" xmlns="http://www.w3.org/2000/svg" viewBox="0 0 347.31 501.28"><defs><style>.cls-1{fill:#0a0b0a;stroke:#191818;stroke-miterlimit:10;}</style></defs><title>middlehead</title><path class="cls-1" d="M223.62,792V721.21a63.58,63.58,0,0,0,9.63-2.48c8.13-2.8,11.33-5.78,18.22-6.63,3.16-.39,4.1,0,7,0,10.49-.11,13.49-5.54,35.2-17.39,1.28-.7,8-4.33,12.42-10.35a16.8,16.8,0,0,0,2.42-4.09c1.3-3.3.63-5.1,1.86-9.48.63-2.26.89-2.07,1.49-4.09a26.36,26.36,0,0,0,.74-10c-.69-10.53,3.08-11.4,1.49-18-1.23-5.12-3.43-4.41-8.07-13.17-1.94-3.65-2.48-5.53-5.71-14.37-5-13.8-5.14-13.19-6.84-18.24-5.63-16.75-7-31.37-8-41.75-.7-7.68-.88-14.08-.91-18.47-.5-.81-1.2-2-2-3.42-2.12-4-3.58-6.73-3.74-10-.13-2.8.83-2.54.92-5.7.11-4-1.41-6.16-2.74-10.27-.76-2.32-1.11-5.2-1.83-10.94-1.28-10.39-.38-11.75-1.14-27.15-.35-7.26-.79-11.73,1.37-17.33.72-1.86,2.44-6.18,5.48-6.62,2.52-.37,3.75,2.26,5.47,1.83,3-.76,1.31-9.11,3.88-18.94,3.07-11.73,8.63-12,8.89-21.44.14-4.9-1.28-7.07,0-12.54.57-2.41,1.48-4.67,4.57-10,3.75-6.52,6.91-11,8.44-13.23,9.12-13.32,6.49-14.39,13-22.35,5-6.16,6.2-5,15.51-14.6,7.09-7.29,8.41-10,12.54-14.37,10-10.57,21.49-15.1,28.37-17.81,13.83-5.45,25.71-5.61,49.46-5.94,11.55-.15,19.35.4,32.32,1.32,27,1.92,33,4.37,36.28,5.94,4.49,2.13,15.81,7.51,22.43,19.79,6.83,12.69,5.1,26.19,4.61,29.68-1.78,12.67-7.52,17.71-4.61,27.7,1.2,4.13,2.64,4.85,4.61,11.21a61.54,61.54,0,0,1,2.64,17.15c.1,3.77.12,11.93-5.28,42.22-2.08,11.67-3,15.61-3.29,23.08-.21,5.15.05,7.64-.66,11.87a44.35,44.35,0,0,1-7.92,18.47,5.84,5.84,0,0,1,2.2,1.51c1.67,1.87,1.57,4.47,1.33,8.86a27.21,27.21,0,0,1-.6,5.1,21.7,21.7,0,0,1-2.8,6.92,26.65,26.65,0,0,1-3.39,4c-4.43,4.93-3.42,5.8-7.53,10.56-2.54,2.95-4.14,4-4.61,6.68a8.39,8.39,0,0,0,.24,3.88c1.05,3.35,3.79,4.18,6.07,6.44,5.17,5.13,4.29,14,4.13,14.08s-.38-1.75-1.58-5.1a17.33,17.33,0,0,0-1.94-4.37c-.88-1.23-1.12-1-3.28-3.4-1.46-1.6-1.79-2.17-2.19-2.06-.8.21-.2,2.73-1.09,5.46-.18.55-.84,2.41-4.61,5.82-4.23,3.83-5.28,3.19-8.62,6.2-4.38,3.94-6,8.13-6.8,7.76s.16-3.2.25-3.52a17.53,17.53,0,0,1,6.31-9c2.63-1.92,3.52-1.46,6.19-3.76a12.78,12.78,0,0,0,3.4-3.89c2.21-4.37.42-10.42-1.09-10.56-1.11-.1-1.23,3-4.86,9a92.78,92.78,0,0,1-6.31,8.74c-2.66,3.43-2.71,3.23-4,5-2.82,3.81-4,6.6-7.28,13.84-3,6.5-4.46,9.75-5.22,11.17-2.39,4.44-5,7.74-10.07,14.32a185.13,185.13,0,0,1-15.91,18.33c-2.26,2.26-4.21,4.08-5.58,5.34.21.57.52,1.4.95,2.38.93,2.09,3.19,6.62,10.06,13.51A90.15,90.15,0,0,0,452.7,657a92.54,92.54,0,0,0,14.11,9c4.82,2.48,9.12,4,17.71,6.91,10.31,3.53,13.77,4,16.06,4.2a65.5,65.5,0,0,0,10.36-.15c1.71-.18,3.15-.41,4.21-.6a14.66,14.66,0,0,0,5.87-2c2.6-1.61,2.55-2.82,4.45-3.44,2.13-.69,3.17.5,8.5,1.62.56.12,2.13.35,5.26.81,7.54,1.11,7.75,1,9.72,1.42,4.74,1.09,5,2.26,8.7,3.24a23.9,23.9,0,0,0,12.27-.21V792Z" transform="translate(-223.12 -291.21)"/></svg>