<svg id="head2" xmlns="http://www.w3.org/2000/svg" viewBox="0 0 161.01 131.31"><defs><style>.cls-1{fill:#d6bc91;}.cls-1,.cls-2,.cls-3,.cls-4{stroke:#0a0b0a;stroke-miterlimit:10;}.cls-2{fill:#b29180;}.cls-3{fill:#cea58a;}.cls-4{fill:none;}</style></defs><title>middleheadinside</title><g id="Layer_13" data-name="Layer 13"><path class="cls-1" d="M400.82,349.88c1.13-1,4.77,1.07,6.18,1.87,11.82,6.74,22.09,12.82,22.26,12.92l6.61,3.92a3.39,3.39,0,0,1,1.59.94c.19.21.81,1,.57,3.6-.21,2.27-.77,2.75-.88,5.07,0,1,.06.91,0,1.93a24.39,24.39,0,0,1-.85,4.2c-.47,2-.61,2.74-1.33,3.46a1.73,1.73,0,0,1-1.3.66,1.33,1.33,0,0,1-1-.62c-.35-.59.11-1.2.38-2.27a9.64,9.64,0,0,0,.09-2.54c0-4,.09,1.13,0-4.69-.06-3.46-.09-5.2-.17-5.38-.75-1.89-2.74-2.42-7.43-4.21-11.33-4.3-15.92-7.33-20.15-7.62a4.93,4.93,0,0,1-1.9-.47c-2.32-1.16-2.87-4.1-3-4.66a21.47,21.47,0,0,1,0-3.19C400.49,350.28,400.66,350,400.82,349.88Z" transform="translate(-352.66 -299.77)"/></g><g id="Layer_10" data-name="Layer 10"><path class="cls-2" d="M358.31,333.38c-.89.79-.5,1.38-1.27,3.41-1.36,3.57-3.39,3.87-3.82,6.36-.31,1.81.62,2.48,1.27,4.89,1,3.82,0,6.88-.47,9-1.84,8.09.48,18.76,1.75,24.59a79.5,79.5,0,0,0,6.52,18.51c2.77,5.55,5.64,11.16,11.62,16.73,4.51,4.19,9.07,8.44,15.6,8.59,5.62.13,11.26-2.81,12.1-3.26a20.42,20.42,0,0,0,3.66-2.37c3.67-3.12,4.47-7.44,5.41-14.21s3.17-24.2,4.3-28.73c0-.15.3-1.19.68-2.55a47.24,47.24,0,0,1,1.55-5,52.26,52.26,0,0,0-1.41,7.42,14.17,14.17,0,0,0-.08,3.34,32.87,32.87,0,0,0,1.16,4.42c.46,1.65.69,2.47.72,2.61.36,2.42-.31,3.58.64,5,.26.39.28.26.94,1.07a17,17,0,0,1,1.73,2.61c1.58,2.88,2.83,4.42,3.95,7.3a3.77,3.77,0,0,1,.29,2.54,5.65,5.65,0,0,1-.86,1.61c-.5.72-.74.86-1.15,1.4A5.21,5.21,0,0,0,422,411.2a4.31,4.31,0,0,0,1.58,3.21c1,1,1.62.95,4.89,2.48a25.43,25.43,0,0,1,3.39,1.74,17.6,17.6,0,0,1,3.74,3.48c2.05,2.47,2.2,3.77,3.52,3.95.79.11,1.84-.2,2.43.41a2.24,2.24,0,0,0,.7.65,4.38,4.38,0,0,0,.91.24,7.63,7.63,0,0,0,1.06.23,1.64,1.64,0,0,0,1.06-.09c.52-.36.12-1.24.6-1.5.31-.17.59.11,1.06-.05s.73-.39.71-.66-.75-.27-1.38-.86-.28-.95-.92-1.58c-.41-.4-.61-.32-1.28-.86a6.81,6.81,0,0,1-.85-.86c-1-1.17-1-3.5-1.06-3.89a31.86,31.86,0,0,0-1.63-5.34,51,51,0,0,0-4.89-10.69,15.82,15.82,0,0,1-1.78-3.49,16.22,16.22,0,0,1-.78-3.37s-.27-2.05-1.64-8.49c-.92-4.31-1.42-3.79-2.43-8.06-1.51-6.32-.9-9.5-2.89-13.43a29.32,29.32,0,0,0-2.28-3.68,18.38,18.38,0,0,0-2.59-3,11.16,11.16,0,0,0-4.86-3,10.55,10.55,0,0,0-6.08.42,12.63,12.63,0,0,0-5.78,4A12.5,12.5,0,0,0,403,361.4c-4.38,8.22-6.57,12.34-8.21,17.11s-2.24,7.86-4.43,8.3a2.93,2.93,0,0,1-2.14-.4c-.76-.6-.6-1.54-.65-3.79a29.23,29.23,0,0,0-.43-5.38c-.47-2.38-1.06-2.75-.64-3.59.3-.59.73-.67,3.94-2.42,1.65-.89,2.27-1.27,2.33-1.88,0-.17,0-.36-.91-1.7a23.35,23.35,0,0,0-1.42-2,22,22,0,0,0-1.82-2,10,10,0,0,0-1.72-1.41,4,4,0,0,0-2.13-.85c-1.35,0-1.68,1.45-2.53,1.51-1.79.13-5.59-5.71-4.84-12.08.53-4.61,3.11-6.6,1.65-9-.67-1.1-1.25-.77-4.75-3.45-2.57-2-2.56-2.39-4.33-3.45a16.33,16.33,0,0,0-5.36-2.11C362.85,332.5,359.94,332,358.31,333.38Z" transform="translate(-352.66 -299.77)"/><path class="cls-1" d="M476.39,330.09c.73.53.25,3.05.05,4-1.63,8.2-3.17,15.35-3.2,15.47l-1,4.61a2.11,2.11,0,0,1-.24,1.1c-.08.15-.4.65-1.87.92-1.27.23-1.63,0-2.92.26-.57.13-.48.18-1.05.3a12.26,12.26,0,0,1-2.45.15c-1.17,0-1.6.06-2.12-.26A1.16,1.16,0,0,1,461,356a.86.86,0,0,1,.15-.72c.27-.31.68-.12,1.31-.13a4.8,4.8,0,0,0,1.41-.34c2.2-.66-.61.23,2.56-.75,1.88-.58,2.82-.87,2.91-1,.9-.75.84-2,1-5.15.39-7.52,1.25-10.76.67-13.36a3.38,3.38,0,0,1-.07-1.23,3.67,3.67,0,0,1,2-2.52,10.65,10.65,0,0,1,1.74-.52C476.12,330,476.28,330,476.39,330.09Z" transform="translate(-352.66 -299.77)"/><path class="cls-2" d="M478,301.82c-.58-.41-.84-.08-2.08-.23-2.19-.26-2.7-1.44-4.14-1.31-1.05.1-1.25.76-2.45,1.54a8.8,8.8,0,0,1-5,1.13c-4.74.16-10.16,3.23-13.13,4.91a42.36,42.36,0,0,0-9,6.85,30.19,30.19,0,0,0-7.13,9.64c-1.5,3.38-3,6.81-2,10.78a18.45,18.45,0,0,0,3.88,6.79,12.47,12.47,0,0,0,1.93,1.84c2.34,1.73,4.84,1.53,8.7,1s13.77-1.89,16.45-1.91h1.5a25.45,25.45,0,0,1,3,.16,26.09,26.09,0,0,0-4.3.31,7.34,7.34,0,0,0-1.84.48,16.63,16.63,0,0,0-2.22,1.39c-.82.54-1.23.81-1.3.84-1.26.6-2,.38-2.63,1.18-.17.22-.1.21-.42.74a10,10,0,0,1-1.13,1.45,32.27,32.27,0,0,1-3.3,3.54,2,2,0,0,1-1.34.57,3.26,3.26,0,0,1-1-.27c-.48-.19-.6-.31-1-.48a2.91,2.91,0,0,0-1.55-.3c-.86.16-1.31,1.11-1.48,1.46-.36.75-.24,1.12-.51,3.34a17.41,17.41,0,0,1-.36,2.32,10.57,10.57,0,0,1-1.25,2.81c-1,1.62-1.68,1.92-1.55,2.75.08.49.43,1.07.2,1.52a1.55,1.55,0,0,0-.24.53,4.06,4.06,0,0,0,0,.59,6.35,6.35,0,0,0,.06.67,1.14,1.14,0,0,0,.23.63c.29.26.7-.12.93.13s0,.37.21.63.34.38.48.32,0-.49.23-1,.47-.32.71-.81c.14-.3.06-.42.24-.9a4.38,4.38,0,0,1,.32-.65,4,4,0,0,1,1.95-1.25,17.15,17.15,0,0,0,2.63-1.83,27.13,27.13,0,0,0,5-4.63,9,9,0,0,1,1.61-1.62,8.05,8.05,0,0,1,1.7-1s1.07-.49,4.35-2.33c2.2-1.23,1.83-1.45,4-2.73,3.2-1.9,5-2,6.84-3.85a17,17,0,0,0,1.62-2,11.13,11.13,0,0,0,1.17-2,7.19,7.19,0,0,0,.78-3.41,7.28,7.28,0,0,0-1.29-3.6,7.83,7.83,0,0,0-3.16-2.87,7.46,7.46,0,0,0-1.5-.57c-5.26-1.35-7.89-2-10.78-2.27s-4.68-.12-5.3-1.38a2,2,0,0,1-.15-1.35c.19-.55.73-.61,1.95-1a15.09,15.09,0,0,0,2.87-1.11c1.22-.66,1.32-1.07,1.85-.95.37.09.49.34,2,2,.78.86,1.1,1.17,1.44,1.11.09,0,.19-.06.77-.81a14.15,14.15,0,0,0,.83-1.17,13.3,13.3,0,0,0,.77-1.41,6.59,6.59,0,0,0,.47-1.26,2.62,2.62,0,0,0,.09-1.42c-.25-.81-1.08-.79-1.26-1.29-.38-1.06,2.15-4.28,5.76-4.83,2.61-.4,4.15.85,5.22-.42.48-.57.2-.87,1.06-3.4a29.63,29.63,0,0,0,1.13-3.16,11.26,11.26,0,0,0,.23-3.57C479.3,304.42,479.09,302.58,478,301.82Z" transform="translate(-352.66 -299.77)"/><path class="cls-3" d="M474.52,335.2c.15-.26,1.39.34,2.38,1.19a7.35,7.35,0,0,1,2.38,3.4,7.59,7.59,0,0,1-1.06,6c-1.06,1.63-1.79,1.2-5.41,4.09-1.45,1.16-1.41,1.29-2.49,2a28.92,28.92,0,0,1-4.59,2.42,31.19,31.19,0,0,0-9.36,6.56c-2,1.93-2.6,2.85-4.45,4.16-.6.42-1.6,1.08-2,1.33-2.33,1.52-2.58,1.56-3,2.15a2.66,2.66,0,0,1-1,1.05c-.41.21-.56.09-.95.37s-.43.51-.85.69c-.12.05-.46.19-.59,0s-.05-.18,0-.69a7.36,7.36,0,0,1,.17-.8c.22-.43.5-.3.75-.73.13-.24.05-.29.2-.74a3.7,3.7,0,0,1,.45-.88,2.67,2.67,0,0,1,.92-.75c1.34-.76,1.7-.9,2.25-1.27.33-.24.38-.3,1-.81,1.82-1.48,1.94-1.31,2.89-2.18a12.79,12.79,0,0,0,2.05-2.28,6.92,6.92,0,0,1,1-1.17,9.06,9.06,0,0,1,.87-.69c.67-.49,1-.74,1.37-.95.64-.37.74-.31,1.6-.78.47-.25.48-.29,1-.57,1-.55,1.09-.49,2-1,.56-.3,1-.58,1.83-1.14l1.2-.82c.63-.43,1.3-.88,1.77-1.17,1.57-1,2-.75,3.89-1.73a9.06,9.06,0,0,0,1.72-1.07c1-.77,1.1-1.27,2.92-3.72a6.51,6.51,0,0,0,.75-1.26c.15-.33.27-.67.37-1,.16-.47.28-.87.31-1a6.92,6.92,0,0,0-1-4.31C475.1,335.93,474.4,335.4,474.52,335.2Z" transform="translate(-352.66 -299.77)"/><path class="cls-4" d="M479.12,338.33" transform="translate(-352.66 -299.77)"/><path class="cls-1" d="M478.19,317.58c-.52-.45-1-.26-2.69,0-3.24.52-3.18.1-4.38.6-.87.36-2.68,1.11-3.08,2.87-.2.89.16,1.12,0,2.32a7.19,7.19,0,0,1-1.55,3.31,25.25,25.25,0,0,1-2.85,3.36c-1.83,1.89-1.85,1.68-3,3-1,1.09-.95,1.2-3.22,4-1.26,1.57-1.91,2.37-2.56,3.05-1.4,1.47-1.46,1.21-3.25,2.92-2.29,2.2-2.81,3.21-4.1,3.17a11.87,11.87,0,0,1-1.81-.48,6.91,6.91,0,0,0-2.9-.57c-.28,0-1.08.14-1.11.51s.79.69,1.84,1.57c1.63,1.37,1.64,2.34,2.65,2.77.7.3,1.16,0,2.81-.58.49-.19,2.36-.79,6.12-2a26.83,26.83,0,0,0,3.13-1.05,14.37,14.37,0,0,0,3.3-2,19.75,19.75,0,0,0,3.3-3.85c1.89-2.56,1.66-2.7,2.84-4,1.35-1.51,1.68-1.36,3.31-3.16,1.37-1.51,1.14-1.62,2.38-2.89,1.49-1.53,1.88-1.43,3-2.85A22,22,0,0,0,478,325a6.63,6.63,0,0,0,.93-1.92,6.77,6.77,0,0,0,.16-2.36C479,319.51,478.91,318.21,478.19,317.58Z" transform="translate(-352.66 -299.77)"/><path class="cls-3" d="M479.29,316.63c0-.64.13-1.12.15-1.27a14,14,0,0,1,1-3,10.09,10.09,0,0,0,.36-4c-.13-2.61-.92-4-.4-4.44.37-.3,1.11.08,1.84.45,1,.51,1,.87,1.64,1s.78-.09,2.05-.59a20.6,20.6,0,0,1,2-.69,4.83,4.83,0,0,1,3-.13c1.39.57,1.14,2,3.57,5.75a22.11,22.11,0,0,1,2.18,3.62,10,10,0,0,1,.85,2.77c.14,1.09-.06,1.28,0,2.52.08,1.73.49,1.89.64,3.51a8,8,0,0,1-.41,3.81c-.5,1.21-.93,1-1.79,2.61-.74,1.39-.55,1.8-1.13,2.54-.19.24-.59.68-2.87,1.38-3.2,1-3.19.34-5.22,1.13a2,2,0,0,1-1.34.2c-.87-.24-1-1.09-2.13-2a3.92,3.92,0,0,0-2.44-1.09c-.76,0-.86.4-1.48.24s-.71-.6-1.69-1.18c-.8-.46-1.14-.39-1.23-.69s.59-.77,1.36-1.93a10.91,10.91,0,0,0,1.15-2.67,9.41,9.41,0,0,0,.61-2.39,21.53,21.53,0,0,0-.15-2.3A21.14,21.14,0,0,1,479.29,316.63Z" transform="translate(-352.66 -299.77)"/><path class="cls-1" d="M483.19,383.67c-.71-.59-3,.65-3.88,1.13-7.44,4.07-13.9,7.74-14,7.8L461.15,395a2.09,2.09,0,0,0-1,.57c-.12.13-.51.6-.36,2.17.13,1.37.49,1.66.55,3.06,0,.62,0,.55,0,1.16a14.62,14.62,0,0,0,.54,2.54c.29,1.2.38,1.65.84,2.09a1,1,0,0,0,.81.39.85.85,0,0,0,.66-.37c.22-.36-.07-.73-.24-1.37a5.7,5.7,0,0,1-.06-1.53c0-2.45-.06.68,0-2.83,0-2.09.06-3.14.11-3.25.47-1.14,1.72-1.46,4.68-2.54,7.12-2.59,10-4.42,12.67-4.59a3.33,3.33,0,0,0,1.19-.29,4,4,0,0,0,1.87-2.81,14.18,14.18,0,0,0,0-1.92C483.4,383.91,483.3,383.76,483.19,383.67Z" transform="translate(-352.66 -299.77)"/><path class="cls-2" d="M509.93,373.72c.56.47.31.83.8,2,.86,2.16,2.14,2.34,2.4,3.84.2,1.1-.38,1.5-.8,2.95a9.91,9.91,0,0,0,.3,5.45c1.16,4.88-.3,11.32-1.1,14.84a46.26,46.26,0,0,1-4.1,11.16,31.92,31.92,0,0,1-7.31,10.1c-2.83,2.53-5.71,5.09-9.81,5.18a17.7,17.7,0,0,1-7.61-2,13.44,13.44,0,0,1-2.31-1.43c-2.3-1.89-2.81-4.49-3.4-8.58s-2-14.6-2.7-17.33c0-.1-.19-.72-.43-1.54-.49-1.7-.94-3-1-3a31.08,31.08,0,0,1,.88,4.48,8.24,8.24,0,0,1,.05,2,18.06,18.06,0,0,1-.73,2.66c-.29,1-.43,1.49-.45,1.58-.23,1.46.19,2.16-.41,3-.16.24-.17.16-.58.64a10.1,10.1,0,0,0-1.09,1.58,34.46,34.46,0,0,0-2.49,4.4,2.28,2.28,0,0,0-.18,1.54,3.67,3.67,0,0,0,.54,1c.32.44.47.52.73.85a3.08,3.08,0,0,1,.72,1.49,2.57,2.57,0,0,1-1,1.94c-.63.59-1,.57-3.08,1.49a18.26,18.26,0,0,0-2.13,1,10.28,10.28,0,0,0-2.35,2.11c-1.3,1.48-1.39,2.27-2.22,2.38-.5.06-1.16-.12-1.53.24a1.25,1.25,0,0,1-.44.4,2.77,2.77,0,0,1-.57.14,4.42,4.42,0,0,1-.67.14,1,1,0,0,1-.66-.06c-.33-.21-.08-.74-.38-.9s-.37.07-.67,0-.46-.24-.44-.4.47-.16.86-.52.18-.57.58-.95.39-.19.8-.52a3.67,3.67,0,0,0,.54-.52,4.34,4.34,0,0,0,.67-2.34,18.11,18.11,0,0,1,1-3.23,30.24,30.24,0,0,1,3.08-6.45,9.35,9.35,0,0,0,1.12-2.1,9.86,9.86,0,0,0,.49-2s.17-1.24,1-5.13c.58-2.6.89-2.29,1.53-4.86.95-3.82.57-5.74,1.82-8.11a17.88,17.88,0,0,1,1.43-2.22,11.2,11.2,0,0,1,1.63-1.79,7.08,7.08,0,0,1,3.06-1.79,6.86,6.86,0,0,1,3.82.26,7.91,7.91,0,0,1,3.64,2.39,7.48,7.48,0,0,1,.95,1.36c2.76,5,4.13,7.45,5.16,10.33s1.42,4.74,2.79,5a1.9,1.9,0,0,0,1.35-.24c.48-.36.38-.92.41-2.28a16.78,16.78,0,0,1,.27-3.25c.29-1.43.67-1.66.4-2.16s-.46-.41-2.48-1.46c-1-.54-1.43-.77-1.46-1.14,0-.1,0-.21.57-1a13.92,13.92,0,0,1,.89-1.2,11.35,11.35,0,0,1,1.15-1.19,6.15,6.15,0,0,1,1.08-.86,2.64,2.64,0,0,1,1.34-.51c.85,0,1.06.87,1.59.91,1.13.08,3.51-3.44,3.05-7.29-.34-2.78-2-4-1-5.44.42-.66.78-.46,3-2.08a29.81,29.81,0,0,1,2.73-2.08,10.68,10.68,0,0,1,3.37-1.28C507.08,373.18,508.91,372.86,509.93,373.72Z" transform="translate(-352.66 -299.77)"/><path class="cls-3" d="M478.8,387.08c.2-.23-.71-1.32-1.81-2.09a7.12,7.12,0,0,0-3.93-1.42,7.46,7.46,0,0,0-5.52,2.85c-1.28,1.57-.66,2.18-2.44,6.72-.71,1.82-.85,1.82-1.28,3.13a32.47,32.47,0,0,0-1.06,5.4A34.26,34.26,0,0,1,459,413.14c-1.3,2.6-2,3.48-2.77,5.76-.24.73-.6,2-.73,2.41-.82,2.81-.79,3.09-1.25,3.68a3,3,0,0,0-.73,1.34c-.08.49.07.61-.08,1.08s-.38.59-.43,1.07c0,.14-.06.53.13.62s.19,0,.65-.25.68-.37.73-.41c.35-.35.14-.6.49-1,.19-.21.27-.14.65-.43a3.69,3.69,0,0,0,.73-.72,2.8,2.8,0,0,0,.46-1.16c.36-1.59.4-2,.61-2.66.13-.41.18-.47.5-1.26.92-2.29.72-2.36,1.3-3.58a13.87,13.87,0,0,1,1.62-2.76,7.08,7.08,0,0,0,.86-1.34,9.45,9.45,0,0,0,.42-1.09,17.18,17.18,0,0,0,.54-1.67c.17-.76.09-.85.3-1.86.12-.56.15-.57.29-1.16.26-1.14.17-1.26.39-2.32.13-.66.29-1.17.59-2.2.17-.58.22-.69.46-1.46s.49-1.59.63-2.15c.49-1.88.16-2.3.6-4.47a10.49,10.49,0,0,1,.54-2.08c.49-1.2.92-1.49,2.78-4.06a6.13,6.13,0,0,1,1-1.14c.28-.24.58-.47.82-.65.41-.3.77-.54.87-.61a6.53,6.53,0,0,1,4.42-.28C477.93,386.7,478.63,387.26,478.8,387.08Z" transform="translate(-352.66 -299.77)"/><path class="cls-4" d="M474.51,383.31" transform="translate(-352.66 -299.77)"/><path class="cls-1" d="M494.73,378.17c.58.4.54,1,.74,2.75.39,3.45.78,3.26.64,4.64-.11,1-.33,3.06-1.92,4-.79.47-1.12.17-2.23.67a7.26,7.26,0,0,0-2.76,2.56,27.44,27.44,0,0,0-2.44,3.88c-1.31,2.43-1.1,2.38-2,4-.76,1.34-.89,1.32-3,4.46-1.17,1.75-1.76,2.64-2.23,3.5-1,1.86-.76,1.84-1.91,4.17-1.48,3-2.31,3.81-1.91,5.12a12.38,12.38,0,0,0,.95,1.71,7.37,7.37,0,0,1,1.36,2.79c0,.29.16,1.13-.19,1.28s-.88-.6-2-1.42c-1.77-1.27-2.7-1-3.4-1.9-.48-.62-.35-1.16-.21-3,0-.55.1-2.64.21-6.82a30.89,30.89,0,0,1,.15-3.51,15.82,15.82,0,0,1,1-3.94,21.46,21.46,0,0,1,2.79-4.49c1.94-2.68,2.14-2.49,3.08-4.08,1.08-1.82.84-2.11,2.12-4.3,1.08-1.84,1.25-1.64,2.13-3.28,1.06-2,.86-2.33,1.91-3.89a28.75,28.75,0,0,1,2-2.46A7.44,7.44,0,0,1,489.2,379a6.8,6.8,0,0,1,2.23-.85C492.65,377.9,493.93,377.62,494.73,378.17Z" transform="translate(-352.66 -299.77)"/><path class="cls-3" d="M495.34,376.77a10,10,0,0,0,1.18-.53,14,14,0,0,0,2.61-1.9,9.47,9.47,0,0,1,3.73-1.53c2.54-.64,4.11-.24,4.38-.9.19-.46-.39-1.11-.95-1.75-.76-.85-1.12-.78-1.42-1.37s-.13-.82,0-2.27c0-.43.13-1.48.12-2.22a5.45,5.45,0,0,0-.71-3.12c-.94-1.25-2.26-.57-6.51-1.95a21.46,21.46,0,0,0-4.09-1.17,9.23,9.23,0,0,0-2.9-.05c-1.09.18-1.21.44-2.43.74-1.69.42-2,.05-3.55.37a7.81,7.81,0,0,0-3.55,1.53c-1,.87-.71,1.25-2,2.59-1.13,1.16-1.58,1.09-2.13,1.9-.18.27-.49.8-.53,3.33-.06,3.55.55,3.36.35,5.66a2.22,2.22,0,0,0,.18,1.42c.48.82,1.32.69,2.55,1.59a4.08,4.08,0,0,1,1.71,2.17c.19.77-.15,1,.18,1.58s.78.54,1.6,1.37.7,1.06,1,1.06c.47,0,.58-.83,1.48-1.95a10.5,10.5,0,0,1,2.25-2,9.11,9.11,0,0,1,2.13-1.32,15.94,15.94,0,0,1,2.25-.53A19.16,19.16,0,0,0,495.34,376.77Z" transform="translate(-352.66 -299.77)"/></g><g id="Layer_12" data-name="Layer 12"><path class="cls-3" d="M407.81,355.53c-.32-.38,1.13-2.19,2.87-3.46a11,11,0,0,1,6.25-2.35c4.89-.09,8.2,4,8.78,4.71,2,2.6,1.05,3.61,3.88,11.15,1.13,3,1.35,3,2,5.18,1,3.3,1,4.76,1.69,9a58.43,58.43,0,0,0,5.91,19c2.07,4.31,3.22,5.77,4.41,9.54.38,1.22.94,3.23,1.16,4,1.3,4.66,1.25,5.12,2,6.1a5,5,0,0,1,1.16,2.23c.14.8-.11,1,.14,1.78s.59,1,.68,1.78c0,.22.1.87-.2,1-.14.07-.31,0-1-.41a8.72,8.72,0,0,1-1.16-.68c-.56-.57-.23-1-.79-1.61-.3-.33-.42-.23-1-.7a6.36,6.36,0,0,1-1.16-1.19,5,5,0,0,1-.73-1.92c-.58-2.64-.64-3.31-1-4.41a22.13,22.13,0,0,0-.79-2.1c-1.46-3.79-1.15-3.91-2.07-5.93a22.93,22.93,0,0,0-2.58-4.58,11.6,11.6,0,0,1-1.37-2.21,16.68,16.68,0,0,1-.66-1.81,27,27,0,0,1-.86-2.77c-.28-1.26-.15-1.41-.48-3.08-.19-.93-.24-.95-.46-1.92-.41-1.89-.27-2.09-.62-3.85-.21-1.09-.45-1.94-.94-3.64-.27-1-.34-1.14-.72-2.43s-.78-2.63-1-3.57c-.78-3.11-.25-3.8-.94-7.4a17.26,17.26,0,0,0-.87-3.44c-.77-2-1.46-2.47-4.41-6.74a10.92,10.92,0,0,0-1.6-1.88,16.1,16.1,0,0,0-1.3-1.08c-.65-.5-1.21-.9-1.38-1-1.45-1-4.36-1.1-7-.47C409.19,354.89,408.07,355.83,407.81,355.53Z" transform="translate(-352.66 -299.77)"/><path class="cls-4" d="M414.62,349.28" transform="translate(-352.66 -299.77)"/></g><g id="Layer_11" data-name="Layer 11"><path class="cls-1" d="M382.49,340.76c-.93.66-.87,1.64-1.19,4.56-.62,5.72-1.24,5.41-1,7.69.17,1.64.52,5.07,3,6.6,1.27.77,1.79.28,3.55,1.1.86.4,2.12,1.17,4.39,4.24a46,46,0,0,1,3.88,6.44c2.09,4,1.75,3.95,3.21,6.6,1.22,2.21,1.41,2.18,4.72,7.38,1.86,2.91,2.8,4.39,3.55,5.81,1.63,3.08,1.2,3.05,3,6.91,2.35,5,3.67,6.32,3,8.48a20.34,20.34,0,0,1-1.52,2.83c-1.2,2.07-1.94,3-2.16,4.63-.07.49-.26,1.88.3,2.13s1.4-1,3.21-2.36c2.81-2.1,4.29-1.64,5.4-3.14.77-1,.56-1.93.34-5-.07-.91-.16-4.38-.34-11.31a51.8,51.8,0,0,0-.23-5.81,27.09,27.09,0,0,0-1.57-6.53c-.9-2.33-2.1-4.07-4.45-7.45-3.08-4.43-3.39-4.11-4.89-6.75-1.71-3-1.34-3.5-3.37-7.13-1.71-3.06-2-2.72-3.38-5.44-1.69-3.25-1.37-3.86-3-6.44a44.34,44.34,0,0,0-3.21-4.08,11.23,11.23,0,0,0-2.53-2.51,10.28,10.28,0,0,0-3.55-1.42C385.79,340.32,383.76,339.85,382.49,340.76Z" transform="translate(-352.66 -299.77)"/></g><g id="Layer_14" data-name="Layer 14"><path class="cls-3" d="M381.51,338.44a16,16,0,0,1-1.88-.88,22.4,22.4,0,0,1-4.14-3.15,15,15,0,0,0-5.93-2.54c-4.05-1.05-6.54-.39-7-1.49-.3-.76.61-1.83,1.51-2.89,1.2-1.42,1.78-1.3,2.26-2.27s.2-1.37,0-3.77c-.06-.71-.21-2.45-.19-3.68,0-1.54.06-3.68,1.13-5.17,1.48-2.07,3.59-.94,10.35-3.24a32.89,32.89,0,0,1,6.5-1.92,14.07,14.07,0,0,1,4.61-.09c1.73.29,1.93.72,3.86,1.23,2.68.7,3.1.07,5.65.61a12.15,12.15,0,0,1,5.65,2.54c1.63,1.43,1.12,2.06,3.2,4.29,1.8,1.92,2.51,1.81,3.39,3.15.28.44.78,1.33.84,5.52.09,5.88-.87,5.56-.56,9.37a3.86,3.86,0,0,1-.28,2.37c-.76,1.35-2.1,1.14-4.05,2.62a6.71,6.71,0,0,0-2.73,3.59c-.3,1.29.24,1.65-.28,2.63s-1.24.89-2.54,2.28c-1.07,1.13-1.11,1.74-1.61,1.75-.75,0-.92-1.38-2.35-3.24a17.59,17.59,0,0,0-3.58-3.24,14,14,0,0,0-3.39-2.19,25.91,25.91,0,0,0-3.57-.88A29.65,29.65,0,0,1,381.51,338.44Z" transform="translate(-352.66 -299.77)"/></g></svg>